<svg width="100" height="100" viewBox="0 0 100 100" fill="none" xmlns="http://www.w3.org/2000/svg">
<path d="M22.5086 9C15.6114 9 10 14.6114 10 21.5086C10 28.4059 15.6114 34.0173 22.5086 34.0173C29.4059 34.0173 35.0173 28.4059 35.0173 21.5086C35.0173 14.6114 29.4059 9 22.5086 9ZM22.5086 31.3931C17.0584 31.3931 12.6242 26.9589 12.6242 21.5086C12.6242 16.0584 17.0584 11.6242 22.5086 11.6242C27.9589 11.6242 32.3931 16.0584 32.3931 21.5086C32.3931 26.9589 27.9589 31.3931 22.5086 31.3931Z" fill="#1C274C"/>
<path d="M22.5086 36.9912C15.6114 36.9912 10 42.6026 10 49.4999C10 56.3971 15.6114 62.0085 22.5086 62.0085C29.4059 62.0085 35.0173 56.3971 35.0173 49.4999C35.0173 42.6026 29.4059 36.9912 22.5086 36.9912ZM22.5086 59.3843C17.0584 59.3843 12.6242 54.9501 12.6242 49.4999C12.6242 44.0496 17.0584 39.6154 22.5086 39.6154C27.9589 39.6154 32.3931 44.0496 32.3931 49.4999C32.3931 54.9501 27.9589 59.3843 22.5086 59.3843Z" fill="#1C274C"/>
<path d="M22.5086 64.9824C15.6114 64.9824 10 70.5938 10 77.4911C10 84.3883 15.6114 89.9997 22.5086 89.9997C29.4059 89.9997 35.0173 84.3883 35.0173 77.4911C35.0173 70.5938 29.4059 64.9824 22.5086 64.9824ZM22.5086 87.3755C17.0584 87.3755 12.6242 82.9413 12.6242 77.4911C12.6242 72.0408 17.0584 67.6066 22.5086 67.6066C27.9589 67.6066 32.3931 72.0408 32.3931 77.4911C32.3931 82.9413 27.9589 87.3755 22.5086 87.3755Z" fill="#1C274C"/>
<path d="M25.7796 17.7818L21.1092 22.4523L19.238 20.5809C18.7254 20.0685 17.8948 20.0685 17.3824 20.5809C16.8699 21.0933 16.8699 21.9241 17.3824 22.4364L20.1815 25.2355C20.4376 25.4918 20.7735 25.6199 21.1092 25.6199C21.445 25.6199 21.7809 25.4918 22.0371 25.2355L27.6354 19.6373C28.1478 19.1248 28.1478 18.294 27.6354 17.7818C27.1228 17.2694 26.2922 17.2694 25.7796 17.7818Z" fill="#1C274C"/>
<path d="M25.7796 45.773L21.1092 50.4435L19.238 48.5721C18.7254 48.0597 17.8948 48.0597 17.3824 48.5721C16.8699 49.0845 16.8699 49.9154 17.3824 50.4276L20.1815 53.2267C20.4376 53.483 20.7735 53.6111 21.1092 53.6111C21.445 53.6111 21.7809 53.483 22.0371 53.2267L27.6354 47.6285C28.1478 47.116 28.1478 46.2852 27.6354 45.773C27.1228 45.2606 26.2922 45.2606 25.7796 45.773Z" fill="#1C274C"/>
<path d="M40.7027 18.6222H65.8949C66.6197 18.6222 67.207 18.0348 67.207 17.3101C67.207 16.5855 66.6197 15.998 65.8949 15.998H40.7027C39.9779 15.998 39.3906 16.5855 39.3906 17.3101C39.3906 18.0348 39.9779 18.6222 40.7027 18.6222Z" fill="#1C274C"/>
<path d="M40.7027 27.0197H89.6876C90.4124 27.0197 90.9997 26.4322 90.9997 25.7076C90.9997 24.983 90.4124 24.3955 89.6876 24.3955H40.7027C39.9779 24.3955 39.3906 24.983 39.3906 25.7076C39.3906 26.4322 39.9779 27.0197 40.7027 27.0197Z" fill="#1C274C"/>
<path d="M40.7027 46.6134H65.8949C66.6197 46.6134 67.207 46.026 67.207 45.3014C67.207 44.5767 66.6197 43.9893 65.8949 43.9893H40.7027C39.9779 43.9893 39.3906 44.5767 39.3906 45.3014C39.3906 46.026 39.9779 46.6134 40.7027 46.6134Z" fill="#1C274C"/>
<path d="M89.6876 52.3867H40.7027C39.9779 52.3867 39.3906 52.9742 39.3906 53.6988C39.3906 54.4234 39.9779 55.0109 40.7027 55.0109H89.6876C90.4124 55.0109 90.9997 54.4234 90.9997 53.6988C90.9997 52.9742 90.4124 52.3867 89.6876 52.3867Z" fill="#1C274C"/>
<path d="M40.7027 74.6047H65.8949C66.6197 74.6047 67.207 74.0172 67.207 73.2926C67.207 72.5679 66.6197 71.9805 65.8949 71.9805H40.7027C39.9779 71.9805 39.3906 72.5679 39.3906 73.2926C39.3906 74.0172 39.9779 74.6047 40.7027 74.6047Z" fill="#1C274C"/>
<path d="M89.6876 80.3779H40.7027C39.9779 80.3779 39.3906 80.9654 39.3906 81.69C39.3906 82.4147 39.9779 83.0021 40.7027 83.0021H89.6876C90.4124 83.0021 90.9997 82.4147 90.9997 81.69C90.9997 80.9654 90.4124 80.3779 89.6876 80.3779Z" fill="#1C274C"/>
</svg>
