<svg width="100" height="100" viewBox="0 0 100 100" fill="none" xmlns="http://www.w3.org/2000/svg">
<path d="M12.5 43.4026C12.5 30.0791 12.5 23.4175 14.073 21.1764C15.646 18.9353 21.9097 16.7912 34.4371 12.503L36.8238 11.686C43.3542 9.45067 46.6192 8.33301 50 8.33301C53.3808 8.33301 56.6458 9.45067 63.1762 11.686L65.5629 12.503C78.0904 16.7912 84.3542 18.9353 85.9271 21.1764C87.5 23.4175 87.5 30.0791 87.5 43.4026C87.5 45.4147 87.5 47.5972 87.5 49.9638C87.5 73.4555 69.8375 84.8559 58.7558 89.6968C55.75 91.0097 54.2471 91.6663 50 91.6663C45.7529 91.6663 44.25 91.0097 41.244 89.6968C30.1623 84.8559 12.5 73.4555 12.5 49.9638C12.5 47.5972 12.5 45.4147 12.5 43.4026Z" stroke="#1C274C" stroke-width="3"/>
<path d="M66.6663 48.1253L52.4997 37.5003C51.018 36.3892 48.9813 36.3892 47.4997 37.5003L33.333 48.1253M58.333 58.542L49.9997 52.292L41.6663 58.542" stroke="#1C274C" stroke-width="3" stroke-linecap="round" stroke-linejoin="round"/>
</svg>
