<svg width="100" height="100" viewBox="0 0 100 100" fill="none" xmlns="http://www.w3.org/2000/svg">
<path d="M12.7879 17.8478C12.9567 17.7437 15.9278 15.8766 17.7075 12.5769C18.4191 13.8961 19.4568 15.3034 20.9502 16.3914C20.0373 17.4075 18.8249 18.9732 17.8738 20.9724C17.7578 20.7469 17.6326 20.5182 17.4975 20.287C17.1162 19.6345 16.2787 19.4143 15.6266 19.7958C14.9745 20.177 14.7547 21.0146 15.1356 21.6669C16.2723 23.6123 16.569 25.3867 16.5713 25.4C16.6736 26.0602 17.2379 26.5494 17.9057 26.5579C17.9114 26.5579 17.9172 26.5579 17.9229 26.5579C18.5833 26.5579 19.1508 26.085 19.2687 25.4338C20.1568 20.5214 24.0086 17.186 24.0453 17.1548C24.4023 16.8525 24.5803 16.389 24.517 15.9257C24.4538 15.4621 24.1578 15.0634 23.7328 14.868C19.875 13.0958 18.9725 8.18448 18.9644 8.13845C18.8496 7.46313 18.256 6.98042 17.5672 7.00061C16.882 7.02504 16.3209 7.55318 16.2547 8.23535C15.8235 12.6821 11.3937 15.494 11.349 15.5219C10.7084 15.9194 10.51 16.7605 10.9061 17.4023C11.302 18.0449 12.1447 18.2443 12.7879 17.8478Z" fill="#1C274C"/>
<path d="M50.3754 43.4551C49.6201 43.4551 49.0078 44.0676 49.0078 44.8227V49.8263C49.0078 50.5813 49.6201 51.1936 50.3754 51.1936C51.1309 51.1936 51.743 50.5813 51.743 49.8263V44.8227C51.7432 44.0676 51.1311 43.4551 50.3754 43.4551Z" fill="#1C274C"/>
<path d="M94.1 44.9556L80.012 37.6955C79.9741 37.6701 79.9363 37.6447 79.8956 37.6229L68.0552 31.3143C67.3884 30.9594 66.5603 31.2117 66.2051 31.8784C65.8498 32.545 66.1024 33.3729 66.7688 33.7283L76.409 38.8643L50.4405 53.6905L24.5095 38.8715L34.1632 33.728C34.8296 33.3727 35.0823 32.5448 34.727 31.8782C34.3721 31.2115 33.5434 30.9592 32.8769 31.3141L21.2347 37.5171C20.9048 37.6126 20.6096 37.8298 20.4259 38.1514C20.0514 38.8073 20.2795 39.6428 20.9355 40.0171L47.6908 55.2929L36.2773 61.3947L10.2132 46.2431L16.6308 42.9357C17.3023 42.5897 17.566 41.765 17.2199 41.0935C16.8739 40.4222 16.0498 40.1598 15.3775 40.5044L6.74116 44.9552C6.29721 45.1842 6.01335 45.6366 6.00043 46.1363C5.98791 46.6359 6.24855 47.1025 6.68039 47.3536L35.562 64.143C35.7742 64.2662 36.0116 64.3282 36.2493 64.3282C36.4707 64.3282 36.6924 64.2741 36.8939 64.1666L49.0075 57.6907V88.396L23.047 73.5599V61.9485C23.047 61.1934 22.4347 60.5809 21.6794 60.5809C20.9242 60.5809 20.3118 61.1934 20.3118 61.9485V74.3535C20.3118 74.8445 20.5747 75.2977 21.0009 75.5412L49.3237 91.7269C49.4253 91.8495 49.5468 91.9569 49.6889 92.0393C49.9011 92.1626 50.1383 92.224 50.3753 92.224C50.4056 92.224 50.4359 92.2201 50.466 92.2183C50.4963 92.2203 50.5266 92.224 50.5566 92.224C50.7941 92.224 51.0311 92.1626 51.2431 92.0393C51.385 91.9569 51.5069 91.8497 51.6083 91.7269L79.9311 75.5412C80.3571 75.2977 80.6201 74.8445 80.6201 74.3535V62.1294C80.6201 61.3741 80.0078 60.7616 79.2525 60.7616C78.4973 60.7616 77.8849 61.3741 77.8849 62.1294V73.5597L51.9246 88.3958V56.0225L79.2747 40.3926L90.6279 46.2433L64.5638 61.3949L58.0119 57.8918C57.3455 57.5369 56.5176 57.7872 56.161 58.453C55.8047 59.1193 56.0561 59.9476 56.7221 60.3041L63.9466 64.1666C64.1485 64.2741 64.3702 64.3282 64.5917 64.3282C64.8295 64.3282 65.0669 64.2662 65.2789 64.143L94.1607 47.3536C94.5926 47.1025 94.8532 46.6359 94.8405 46.1363C94.828 45.637 94.5441 45.1844 94.1 44.9556Z" fill="#1C274C"/>
<path d="M27.5065 19.2667C27.5138 19.3101 27.5253 19.3523 27.5368 19.3951C27.5479 19.4366 27.5586 19.4778 27.5736 19.5178C27.5891 19.5594 27.6089 19.5992 27.6285 19.6393C27.6477 19.6785 27.6664 19.7175 27.6892 19.7546C27.711 19.7901 27.7367 19.8237 27.7621 19.8574C27.7912 19.8963 27.8207 19.9345 27.8538 19.9702C27.8641 19.9813 27.8711 19.9941 27.8818 20.0048L49.4049 41.6675L49.4053 41.6679C49.4132 41.6758 49.4227 41.6822 49.4307 41.6899C49.4856 41.7424 49.5438 41.791 49.6062 41.8334C49.6104 41.8365 49.614 41.8401 49.6185 41.8429C49.6851 41.8872 49.756 41.9233 49.8289 41.955C49.8379 41.959 49.8462 41.9641 49.8555 41.9679C49.8577 41.9687 49.8595 41.9703 49.8616 41.9711C49.8749 41.9766 49.8892 41.9784 49.9025 41.9832C49.9562 42.003 50.0105 42.0194 50.0665 42.0323C50.0812 42.0357 50.0953 42.0418 50.1103 42.0448C50.1208 42.0468 50.1311 42.0475 50.1412 42.0491C50.2173 42.0624 50.2942 42.0709 50.3721 42.0711C50.3731 42.0711 50.3739 42.0713 50.3748 42.0713H50.3752H50.3756C50.3764 42.0713 50.3774 42.0711 50.3784 42.0711C50.4561 42.0709 50.533 42.0622 50.6091 42.0489C50.6194 42.047 50.6297 42.0466 50.64 42.0446C50.6552 42.0416 50.6693 42.0355 50.6842 42.0319C50.7396 42.019 50.7937 42.0028 50.847 41.9832C50.8607 41.9782 50.875 41.9764 50.8888 41.9707C50.8912 41.9699 50.8928 41.9685 50.895 41.9675C50.9043 41.9637 50.9128 41.9584 50.9221 41.9544C50.9945 41.9227 51.0654 41.8867 51.1314 41.8427C51.1332 41.8415 51.1351 41.8403 51.1367 41.8389C51.1381 41.8381 51.1391 41.8367 51.1407 41.8359C51.1427 41.8345 51.1443 41.8324 51.1466 41.831C51.2077 41.789 51.2649 41.7414 51.3192 41.6897C51.3273 41.6818 51.337 41.6754 51.3448 41.6675L51.3454 41.6671L72.8683 20.0043C72.879 19.9936 72.886 19.9809 72.8963 19.97C72.9298 19.9343 72.9591 19.8959 72.9882 19.857C73.0136 19.8233 73.0391 19.7897 73.0609 19.7544C73.0837 19.7171 73.1025 19.6779 73.1218 19.6385C73.1416 19.5984 73.1612 19.5588 73.1766 19.5174C73.1915 19.477 73.2022 19.4356 73.2137 19.3938C73.2252 19.3514 73.2365 19.3095 73.2438 19.2662C73.251 19.2234 73.2539 19.18 73.2569 19.1362C73.2599 19.0916 73.2628 19.0476 73.2615 19.0028C73.2603 18.9616 73.2555 18.9206 73.2504 18.8792C73.2446 18.8298 73.2375 18.7813 73.226 18.7327C73.222 18.7159 73.2222 18.6991 73.2177 18.6824C73.2119 18.6604 73.2008 18.6412 73.1937 18.6196C73.1784 18.5716 73.1606 18.5245 73.1396 18.4783C73.1222 18.4397 73.1031 18.4028 73.0825 18.3664C73.0603 18.3273 73.0362 18.2891 73.0096 18.2518C72.9823 18.2134 72.9537 18.1773 72.9228 18.1423C72.9074 18.1246 72.8959 18.1048 72.8794 18.0876L63.795 8.72367C63.5376 8.4586 63.1833 8.30859 62.8135 8.30859H37.9367C37.5666 8.30859 37.2127 8.4586 36.9551 8.72367L27.8707 18.0876C27.8546 18.1042 27.8439 18.1234 27.8288 18.1405C27.7971 18.1765 27.7674 18.2136 27.7395 18.2532C27.7139 18.2895 27.6905 18.3265 27.6687 18.3644C27.6475 18.4018 27.6277 18.4397 27.6097 18.4795C27.5893 18.5251 27.5719 18.5709 27.5568 18.618C27.5497 18.64 27.5384 18.6594 27.5324 18.682C27.5277 18.6989 27.5279 18.7159 27.5239 18.7331C27.5128 18.7813 27.5055 18.8298 27.4997 18.8786C27.4946 18.9204 27.4898 18.9616 27.4886 19.003C27.4874 19.0476 27.4902 19.0918 27.4934 19.1364C27.4966 19.1808 27.4995 19.2241 27.5065 19.2667ZM50.375 37.0608L45.4132 24.8127H50.375H55.337L50.375 37.0608ZM38.5155 11.0448H62.235L69.3013 18.3285L62.3449 20.2161L58.5781 13.0406C58.2272 12.3718 57.3994 12.115 56.7312 12.4655C56.0623 12.8165 55.8049 13.6431 56.156 14.3119L60.433 22.4589C60.6739 22.9172 61.1455 23.1907 61.6439 23.1907C61.7628 23.1907 61.8834 23.1754 62.0023 23.1431L67.3313 21.6972L54.1943 34.9194L58.6348 23.9585C58.8056 23.5368 58.7557 23.0579 58.5013 22.6806C58.247 22.3034 57.822 22.0773 57.3671 22.0773H50.3754H43.3838C42.9289 22.0773 42.504 22.3036 42.2498 22.6806C41.9954 23.0579 41.9455 23.5368 42.1161 23.9585L46.5565 34.9194L33.4196 21.6972L38.7485 23.1431C38.8676 23.1754 38.9879 23.1907 39.1068 23.1907C39.6051 23.1907 40.0769 22.9172 40.3175 22.4589L44.5949 14.3119C44.946 13.6431 44.6884 12.8163 44.0197 12.4655C43.3513 12.1148 42.5242 12.3716 42.1731 13.0406L38.406 20.2161L31.4496 18.3285L38.5155 11.0448Z" fill="#1C274C"/>
<path d="M76.928 27.2326C77.097 27.1285 80.068 25.2612 81.8474 21.9617C82.559 23.2809 83.5967 24.6882 85.0903 25.7762C84.1774 26.7925 82.9652 28.3577 82.0142 30.3568C81.8979 30.1317 81.7727 29.9028 81.6376 29.6714C81.2563 29.0189 80.4188 28.7991 79.7667 29.1802C79.1146 29.5614 78.8948 30.399 79.2757 31.0511C80.4124 32.9965 80.7089 34.7713 80.7112 34.7846C80.8137 35.4448 81.378 35.934 82.0454 35.9425C82.0513 35.9425 82.057 35.9425 82.0628 35.9425C82.7232 35.9425 83.2905 35.4696 83.4084 34.8183C84.2965 29.906 88.1485 26.5704 88.1848 26.5393C88.5422 26.2371 88.7199 25.7736 88.6567 25.3103C88.5935 24.8467 88.2977 24.4478 87.8725 24.2524C84.0147 22.4804 83.112 17.5689 83.1041 17.523C82.9895 16.8471 82.3975 16.3682 81.7069 16.3852C81.0217 16.4096 80.4606 16.9378 80.3944 17.6199C79.963 22.0665 75.5334 24.8786 75.4885 24.9065C74.8479 25.304 74.6497 26.1451 75.0458 26.7869C75.4423 27.4295 76.285 27.6289 76.928 27.2326Z" fill="#1C274C"/>
</svg>
