<svg width="240" height="143" viewBox="0 0 240 143" fill="none" xmlns="http://www.w3.org/2000/svg">
<path d="M4.5718 123.556C3.49812 122.688 1.924 122.855 1.05592 123.928C0.18784 125.002 0.354513 126.576 1.4282 127.444L4.5718 123.556ZM239.378 10.7727C239.804 9.4596 239.086 8.04917 237.773 7.62241L216.374 0.668031C215.061 0.241276 213.651 0.959804 213.224 2.27291C212.797 3.58601 213.516 4.99645 214.829 5.42321L233.85 11.6049L227.668 30.6256C227.241 31.9387 227.96 33.3491 229.273 33.7759C230.586 34.2026 231.997 33.4841 232.423 32.171L239.378 10.7727ZM180.126 77.3159C196.265 51.2447 210.875 34.9203 221.39 25.1433C226.648 20.2542 230.885 16.9996 233.781 14.9805C235.23 13.9709 236.343 13.2699 237.082 12.8278C237.451 12.6067 237.727 12.4503 237.904 12.3523C237.993 12.3033 238.057 12.269 238.095 12.2484C238.115 12.2382 238.128 12.2314 238.134 12.2279C238.138 12.2262 238.139 12.2253 238.139 12.2253C238.139 12.2253 238.139 12.2254 238.138 12.2258C238.138 12.226 238.137 12.2265 238.137 12.2266C238.136 12.2271 238.135 12.2276 237 10C235.865 7.7724 235.864 7.77305 235.863 7.77375C235.862 7.77406 235.861 7.77481 235.859 7.77542C235.857 7.77663 235.854 7.77805 235.851 7.77969C235.845 7.78295 235.837 7.78706 235.827 7.79203C235.808 7.80197 235.783 7.81533 235.751 7.83221C235.687 7.86598 235.598 7.91383 235.485 7.97655C235.258 8.10199 234.933 8.28689 234.514 8.53748C233.677 9.03868 232.466 9.80253 230.922 10.8788C227.834 13.0317 223.415 16.4333 217.985 21.4817C207.125 31.5797 192.235 48.2553 175.875 74.6841L180.126 77.3159ZM1.4282 127.444C19.6612 142.186 37.7871 144.516 53.5334 139.887C69.1367 135.3 82.1308 123.969 90.554 111.833C94.7753 105.751 97.9059 99.3868 99.6474 93.4434C101.375 87.5481 101.805 81.8223 100.301 77.1678C98.7363 72.325 95.1313 68.86 89.492 67.7521C84.063 66.6856 76.9391 67.8304 68.0587 71.4409L69.9418 76.0727C78.4364 72.619 84.4843 71.8639 88.5281 72.6583C92.3614 73.4114 94.5298 75.5684 95.5432 78.7051C96.6175 82.0302 96.4303 86.6414 94.8492 92.0374C93.2821 97.3854 90.4127 103.267 86.4464 108.982C78.4946 120.439 66.3637 130.904 52.1232 135.09C38.0256 139.234 21.5889 137.314 4.5718 123.556L1.4282 127.444ZM68.0587 71.4409C59.2727 75.013 53.4396 78.7197 50.4259 82.5812C48.8808 84.561 47.9892 86.696 47.9664 88.93C47.9436 91.1725 48.7992 93.2018 50.1739 94.954C52.8362 98.3475 57.6905 101.033 63.5504 103.086C69.5044 105.173 76.8688 106.734 84.9704 107.646C101.166 109.471 120.603 108.737 138.113 104.191C155.568 99.6595 171.514 91.2267 180.126 77.3159L175.875 74.6841C168.236 87.0233 153.745 94.9672 136.856 99.3518C120.023 103.722 101.21 104.444 85.5301 102.678C77.6941 101.795 70.7148 100.299 65.204 98.3675C59.5991 96.4034 55.8675 94.1108 54.1078 91.8678C53.2716 90.8019 52.9573 89.8483 52.9662 88.981C52.9751 88.1053 53.317 87.0035 54.3676 85.6574C56.5453 82.867 61.3527 79.5648 69.9418 76.0727L68.0587 71.4409Z" fill="white" fill-opacity="0.8"/>
</svg>
