<svg width="38" height="38" viewBox="0 0 38 38" fill="none" xmlns="http://www.w3.org/2000/svg">
<path fill-rule="evenodd" clip-rule="evenodd" d="M19.0003 3.16602C14.7 3.16602 14.1617 3.18395 12.4728 3.26102C10.7871 3.33808 9.63543 3.60618 8.62843 3.99779C7.57289 4.39468 6.61549 5.01745 5.82383 5.82391C5.01867 6.61466 4.39552 7.57137 3.99772 8.62745C3.60822 9.63445 3.33905 10.7871 3.26199 12.4728C3.18599 14.1607 3.16699 14.698 3.16699 18.9993C3.16699 23.3008 3.18493 23.838 3.26199 25.527C3.33905 27.2126 3.60716 28.3643 3.99876 29.3713C4.39566 30.4267 5.01843 31.3842 5.82489 32.1758C6.61565 32.981 7.57236 33.6042 8.62843 34.0019C9.63543 34.3925 10.7871 34.6606 12.4728 34.7377C14.1617 34.8148 14.7 34.8327 19.0003 34.8327C23.3007 34.8327 23.839 34.8148 25.5279 34.7377C27.2135 34.6606 28.3653 34.3925 29.3723 34.001C30.4277 33.604 31.3852 32.9813 32.1768 32.1747C32.9819 31.384 33.6051 30.4274 34.0029 29.3713C34.3935 28.3643 34.6615 27.2126 34.7387 25.527C34.8158 23.838 34.8337 23.2997 34.8337 18.9993C34.8337 14.699 34.8158 14.1607 34.7387 12.4718C34.6615 10.7861 34.3935 9.63445 34.0019 8.62745C33.6044 7.57091 32.9812 6.6138 32.1757 5.82285C31.385 5.01769 30.4283 4.39454 29.3723 3.99674C28.3653 3.60724 27.2126 3.33808 25.5268 3.26102C23.839 3.18502 23.3018 3.16602 19.0003 3.16602ZM19.0003 6.01918C23.2278 6.01918 23.7293 6.03502 25.399 6.11102C26.9423 6.18174 27.7804 6.43824 28.3388 6.65674C29.0778 6.94279 29.6055 7.28691 30.1597 7.84002C30.7138 8.39418 31.0569 8.92195 31.3429 9.66085C31.5604 10.2192 31.8179 11.0573 31.8887 12.6006C31.9647 14.2705 31.9805 14.7718 31.9805 18.9993C31.9805 23.2268 31.9647 23.7283 31.8887 25.3981C31.8179 26.9413 31.5614 27.7794 31.3429 28.3378C31.0895 29.0256 30.6852 29.6477 30.1597 30.1587C29.6489 30.6843 29.0266 31.0887 28.3388 31.3419C27.7804 31.5595 26.9423 31.8169 25.399 31.8877C23.7293 31.9637 23.2289 31.9795 19.0003 31.9795C14.7718 31.9795 14.2714 31.9637 12.6016 31.8877C11.0583 31.8169 10.2202 31.5604 9.66183 31.3419C8.97409 31.0886 8.35189 30.6842 7.84099 30.1587C7.31552 29.6477 6.91118 29.0255 6.65772 28.3378C6.44026 27.7794 6.18272 26.9413 6.11199 25.3981C6.03599 23.7283 6.02016 23.2268 6.02016 18.9993C6.02016 14.7718 6.03599 14.2705 6.11199 12.6006C6.18272 11.0573 6.43922 10.2192 6.65772 9.66085C6.94376 8.92195 7.28789 8.39418 7.84099 7.84002C8.35182 7.3144 8.97404 6.91004 9.66183 6.65674C10.2202 6.43929 11.0583 6.18174 12.6016 6.11102C14.2714 6.03502 14.7728 6.01918 19.0003 6.01918Z" fill="#F8F8F8"/>
<path fill-rule="evenodd" clip-rule="evenodd" d="M18.9996 24.284C18.3058 24.284 17.619 24.1473 16.9779 23.8818C16.3369 23.6163 15.7545 23.2271 15.264 22.7366C14.7734 22.2459 14.3842 21.6636 14.1188 21.0226C13.8532 20.3817 13.7166 19.6947 13.7166 19.0009C13.7166 18.3071 13.8532 17.62 14.1188 16.9791C14.3842 16.3382 14.7734 15.7558 15.264 15.2652C15.7545 14.7746 16.3369 14.3855 16.9779 14.12C17.619 13.8545 18.3058 13.7178 18.9996 13.7178C20.4009 13.7178 21.7445 14.2744 22.7353 15.2652C23.726 16.256 24.2827 17.5998 24.2827 19.0009C24.2827 20.402 23.726 21.7457 22.7353 22.7366C21.7445 23.7273 20.4009 24.284 18.9996 24.284ZM18.9996 10.8625C16.8412 10.8625 14.7712 11.72 13.245 13.2462C11.7188 14.7724 10.8613 16.8425 10.8613 19.0009C10.8613 21.1593 11.7188 23.2293 13.245 24.7555C14.7712 26.2818 16.8412 27.1392 18.9996 27.1392C21.158 27.1392 23.2281 26.2818 24.7543 24.7555C26.2806 23.2293 27.138 21.1593 27.138 19.0009C27.138 16.8425 26.2806 14.7724 24.7543 13.2462C23.2281 11.72 21.158 10.8625 18.9996 10.8625ZM29.5055 10.7148C29.5055 11.225 29.3029 11.7143 28.9422 12.0751C28.5813 12.4358 28.0921 12.6385 27.5819 12.6385C27.0716 12.6385 26.5824 12.4358 26.2215 12.0751C25.8608 11.7143 25.658 11.225 25.658 10.7148C25.658 10.2046 25.8608 9.71524 26.2215 9.35446C26.5824 8.9937 27.0716 8.79102 27.5819 8.79102C28.0921 8.79102 28.5813 8.9937 28.9422 9.35446C29.3029 9.71524 29.5055 10.2046 29.5055 10.7148Z" fill="#F8F8F8"/>
</svg>
