<svg width="1382" height="127" viewBox="0 0 1382 127" fill="none" xmlns="http://www.w3.org/2000/svg">
<path d="M68.92 34.96L52.86 98.1C52.7133 98.54 52.7867 98.98 53.08 99.42C53.52 99.7133 53.96 99.86 54.4 99.86H83.88C84.32 99.86 84.6867 99.7133 84.98 99.42C85.42 98.98 85.5667 98.54 85.42 98.1L69.36 34.96C69.36 34.8133 69.2867 34.74 69.14 34.74C68.9933 34.74 68.92 34.8133 68.92 34.96ZM10.18 163C7.1 163 4.60667 161.753 2.7 159.26C0.94 156.767 0.573334 154.053 1.6 151.12L46.04 14.28C47.2133 10.76 49.2667 7.89999 52.2 5.69999C55.28 3.49999 58.6533 2.4 62.32 2.4H76.84C80.6533 2.4 84.1 3.49999 87.18 5.69999C90.26 7.89999 92.3133 10.76 93.34 14.28L137.56 151.12C138.587 154.053 138.147 156.767 136.24 159.26C134.48 161.753 132.06 163 128.98 163H114.24C110.573 163 107.273 161.9 104.34 159.7C101.407 157.353 99.5 154.42 98.62 150.9L93.34 130C93.1933 128.827 92.46 128.24 91.14 128.24H47.14C45.9667 128.24 45.2333 128.827 44.94 130L39.66 150.9C38.78 154.42 36.8733 157.353 33.94 159.7C31.0067 161.9 27.7067 163 24.04 163H10.18ZM170.134 163C166.76 163 163.827 161.753 161.334 159.26C158.987 156.767 157.814 153.833 157.814 150.46V14.94C157.814 11.5667 158.987 8.63332 161.334 6.13999C163.827 3.64666 166.76 2.4 170.134 2.4H248.014C251.387 2.4 254.247 3.64666 256.594 6.13999C259.087 8.63332 260.334 11.5667 260.334 14.94V20C260.334 23.3733 259.087 26.3067 256.594 28.8C254.247 31.2933 251.387 32.54 248.014 32.54H196.974C195.8 32.54 195.214 33.1267 195.214 34.3V63.34C195.214 64.66 195.8 65.32 196.974 65.32H243.614C246.987 65.32 249.847 66.5667 252.194 69.06C254.687 71.5533 255.934 74.4867 255.934 77.86V81.16C255.934 84.5333 254.687 87.4667 252.194 89.96C249.847 92.4533 246.987 93.7 243.614 93.7H196.974C195.8 93.7 195.214 94.2867 195.214 95.46V131.1C195.214 132.273 195.8 132.86 196.974 132.86H248.014C251.387 132.86 254.247 134.107 256.594 136.6C259.087 139.093 260.334 142.027 260.334 145.4V150.46C260.334 153.833 259.087 156.767 256.594 159.26C254.247 161.753 251.387 163 248.014 163H170.134ZM328.401 31.88V79.84C328.401 80.8667 329.061 81.5267 330.381 81.82C335.368 82.4067 339.328 82.7 342.261 82.7C352.821 82.7 360.961 80.28 366.681 75.44C372.548 70.4533 375.481 63.56 375.481 54.76C375.481 37.3067 364.408 28.58 342.261 28.58C338.595 28.58 334.561 28.9467 330.161 29.68C328.988 29.9733 328.401 30.7067 328.401 31.88ZM304.201 163C300.828 163 297.895 161.753 295.401 159.26C292.908 156.767 291.661 153.833 291.661 150.46V16.04C291.661 12.52 292.835 9.36666 295.181 6.57999C297.528 3.79333 300.461 2.25333 303.981 1.95999C316.448 0.786661 328.475 0.199998 340.061 0.199998C386.995 0.199998 410.461 17.6533 410.461 52.56C410.461 71.48 404.961 85.8533 393.961 95.68C383.108 105.36 367.121 110.2 346.001 110.2C340.428 110.2 335.221 109.98 330.381 109.54C329.061 109.54 328.401 110.127 328.401 111.3V150.46C328.401 153.833 327.155 156.767 324.661 159.26C322.168 161.753 319.235 163 315.861 163H304.201ZM474.545 34.96L458.485 98.1C458.338 98.54 458.412 98.98 458.705 99.42C459.145 99.7133 459.585 99.86 460.025 99.86H489.505C489.945 99.86 490.312 99.7133 490.605 99.42C491.045 98.98 491.192 98.54 491.045 98.1L474.985 34.96C474.985 34.8133 474.912 34.74 474.765 34.74C474.618 34.74 474.545 34.8133 474.545 34.96ZM415.805 163C412.725 163 410.232 161.753 408.325 159.26C406.565 156.767 406.198 154.053 407.225 151.12L451.665 14.28C452.838 10.76 454.892 7.89999 457.825 5.69999C460.905 3.49999 464.278 2.4 467.945 2.4H482.465C486.278 2.4 489.725 3.49999 492.805 5.69999C495.885 7.89999 497.938 10.76 498.965 14.28L543.185 151.12C544.212 154.053 543.772 156.767 541.865 159.26C540.105 161.753 537.685 163 534.605 163H519.865C516.198 163 512.898 161.9 509.965 159.7C507.032 157.353 505.125 154.42 504.245 150.9L498.965 130C498.818 128.827 498.085 128.24 496.765 128.24H452.765C451.592 128.24 450.858 128.827 450.565 130L445.285 150.9C444.405 154.42 442.498 157.353 439.565 159.7C436.632 161.9 433.332 163 429.665 163H415.805ZM600.179 31.88V74.12C600.179 75.44 600.765 76.1 601.939 76.1H612.499C622.765 76.1 630.612 73.9733 636.039 69.72C641.465 65.32 644.179 59.2333 644.179 51.46C644.179 36.2067 634.132 28.58 614.039 28.58C609.492 28.58 605.532 28.8733 602.159 29.46C600.839 29.7533 600.179 30.56 600.179 31.88ZM575.979 163C572.605 163 569.672 161.753 567.179 159.26C564.685 156.767 563.439 153.833 563.439 150.46V16.04C563.439 12.3733 564.612 9.22 566.959 6.57999C569.452 3.93999 572.459 2.47333 575.979 2.18C589.032 0.859998 602.452 0.199998 616.239 0.199998C638.239 0.199998 654.592 4.38 665.299 12.74C676.152 20.9533 681.579 32.6867 681.579 47.94C681.579 57.7667 678.719 66.64 672.999 74.56C667.279 82.3333 659.799 87.9067 650.559 91.28C650.412 91.28 650.339 91.3533 650.339 91.5C650.339 91.7933 650.485 91.94 650.779 91.94C657.965 96.0467 664.052 104.7 669.039 117.9L681.579 151.34C682.605 154.127 682.239 156.767 680.479 159.26C678.719 161.753 676.372 163 673.439 163H660.019C656.205 163 652.759 161.9 649.679 159.7C646.599 157.5 644.472 154.64 643.299 151.12L632.299 119.44C630.245 113.28 627.752 109.1 624.819 106.9C621.885 104.7 617.339 103.6 611.179 103.6H601.939C600.765 103.6 600.179 104.26 600.179 105.58V150.46C600.179 153.833 598.932 156.767 596.439 159.26C593.945 161.753 591.012 163 587.639 163H575.979ZM706.26 33.42C702.887 33.42 699.953 32.1733 697.46 29.68C694.967 27.1867 693.72 24.2533 693.72 20.88V14.94C693.72 11.5667 694.967 8.63332 697.46 6.13999C699.953 3.64666 702.887 2.4 706.26 2.4H804.38C807.753 2.4 810.687 3.64666 813.18 6.13999C815.673 8.63332 816.92 11.5667 816.92 14.94V20.88C816.92 24.2533 815.673 27.1867 813.18 29.68C810.687 32.1733 807.753 33.42 804.38 33.42H776.22C775.047 33.42 774.46 34.0067 774.46 35.18V150.46C774.46 153.833 773.213 156.767 770.72 159.26C768.227 161.753 765.293 163 761.92 163H748.72C745.347 163 742.413 161.753 739.92 159.26C737.427 156.767 736.18 153.833 736.18 150.46V35.18C736.18 34.0067 735.593 33.42 734.42 33.42H706.26ZM857.424 163C854.051 163 851.117 161.753 848.624 159.26C846.131 156.767 844.884 153.833 844.884 150.46V14.94C844.884 11.5667 846.131 8.63332 848.624 6.13999C851.117 3.64666 854.051 2.4 857.424 2.4H868.204C876.564 2.4 882.651 6.06666 886.464 13.4L932.664 100.74C932.664 100.887 932.737 100.96 932.884 100.96C933.031 100.96 933.104 100.887 933.104 100.74V14.94C933.104 11.5667 934.351 8.63332 936.844 6.13999C939.337 3.64666 942.271 2.4 945.644 2.4H956.424C959.797 2.4 962.731 3.64666 965.224 6.13999C967.717 8.63332 968.964 11.5667 968.964 14.94V150.46C968.964 153.833 967.717 156.767 965.224 159.26C962.731 161.753 959.797 163 956.424 163H945.644C937.284 163 931.197 159.333 927.384 152L881.184 64.66C881.184 64.5133 881.111 64.44 880.964 64.44C880.817 64.44 880.744 64.5133 880.744 64.66V150.46C880.744 153.833 879.497 156.767 877.004 159.26C874.511 161.753 871.577 163 868.204 163H857.424ZM1014.68 163C1011.31 163 1008.38 161.753 1005.88 159.26C1003.54 156.767 1002.36 153.833 1002.36 150.46V14.94C1002.36 11.5667 1003.54 8.63332 1005.88 6.13999C1008.38 3.64666 1011.31 2.4 1014.68 2.4H1092.56C1095.94 2.4 1098.8 3.64666 1101.14 6.13999C1103.64 8.63332 1104.88 11.5667 1104.88 14.94V20C1104.88 23.3733 1103.64 26.3067 1101.14 28.8C1098.8 31.2933 1095.94 32.54 1092.56 32.54H1041.52C1040.35 32.54 1039.76 33.1267 1039.76 34.3V63.34C1039.76 64.66 1040.35 65.32 1041.52 65.32H1088.16C1091.54 65.32 1094.4 66.5667 1096.74 69.06C1099.24 71.5533 1100.48 74.4867 1100.48 77.86V81.16C1100.48 84.5333 1099.24 87.4667 1096.74 89.96C1094.4 92.4533 1091.54 93.7 1088.16 93.7H1041.52C1040.35 93.7 1039.76 94.2867 1039.76 95.46V131.1C1039.76 132.273 1040.35 132.86 1041.52 132.86H1092.56C1095.94 132.86 1098.8 134.107 1101.14 136.6C1103.64 139.093 1104.88 142.027 1104.88 145.4V150.46C1104.88 153.833 1103.64 156.767 1101.14 159.26C1098.8 161.753 1095.94 163 1092.56 163H1014.68ZM1172.95 31.88V74.12C1172.95 75.44 1173.54 76.1 1174.71 76.1H1185.27C1195.54 76.1 1203.39 73.9733 1208.81 69.72C1214.24 65.32 1216.95 59.2333 1216.95 51.46C1216.95 36.2067 1206.91 28.58 1186.81 28.58C1182.27 28.58 1178.31 28.8733 1174.93 29.46C1173.61 29.7533 1172.95 30.56 1172.95 31.88ZM1148.75 163C1145.38 163 1142.45 161.753 1139.95 159.26C1137.46 156.767 1136.21 153.833 1136.21 150.46V16.04C1136.21 12.3733 1137.39 9.22 1139.73 6.57999C1142.23 3.93999 1145.23 2.47333 1148.75 2.18C1161.81 0.859998 1175.23 0.199998 1189.01 0.199998C1211.01 0.199998 1227.37 4.38 1238.07 12.74C1248.93 20.9533 1254.35 32.6867 1254.35 47.94C1254.35 57.7667 1251.49 66.64 1245.77 74.56C1240.05 82.3333 1232.57 87.9067 1223.33 91.28C1223.19 91.28 1223.11 91.3533 1223.11 91.5C1223.11 91.7933 1223.26 91.94 1223.55 91.94C1230.74 96.0467 1236.83 104.7 1241.81 117.9L1254.35 151.34C1255.38 154.127 1255.01 156.767 1253.25 159.26C1251.49 161.753 1249.15 163 1246.21 163H1232.79C1228.98 163 1225.53 161.9 1222.45 159.7C1219.37 157.5 1217.25 154.64 1216.07 151.12L1205.07 119.44C1203.02 113.28 1200.53 109.1 1197.59 106.9C1194.66 104.7 1190.11 103.6 1183.95 103.6H1174.71C1173.54 103.6 1172.95 104.26 1172.95 105.58V150.46C1172.95 153.833 1171.71 156.767 1169.21 159.26C1166.72 161.753 1163.79 163 1160.41 163H1148.75ZM1324.44 98.76C1305.96 92.8933 1292.61 85.6333 1284.4 76.98C1276.19 68.18 1272.08 57.4733 1272.08 44.86C1272.08 31.0733 1276.85 20.22 1286.38 12.3C1296.06 4.23333 1309.85 0.199998 1327.74 0.199998C1341.23 0.199998 1353.48 1.74 1364.48 4.81999C1368 5.84666 1370.79 7.97333 1372.84 11.2C1375.04 14.28 1376.14 17.7267 1376.14 21.54V27.92C1376.14 30.8533 1374.89 33.1267 1372.4 34.74C1369.91 36.3533 1367.27 36.6467 1364.48 35.62C1352.01 31.22 1340.5 29.02 1329.94 29.02C1316.45 29.02 1309.7 34.3 1309.7 44.86C1309.7 53.8067 1315.57 60.1867 1327.3 64C1347.54 70.16 1361.55 77.3467 1369.32 85.56C1377.24 93.7733 1381.2 104.553 1381.2 117.9C1381.2 149.433 1361.33 165.2 1321.58 165.2C1308.97 165.2 1297.53 163.22 1287.26 159.26C1283.74 157.94 1280.95 155.667 1278.9 152.44C1276.99 149.067 1276.04 145.4 1276.04 141.44V134.4C1276.04 131.76 1277.21 129.78 1279.56 128.46C1281.91 126.993 1284.25 126.847 1286.6 128.02C1297.31 133.3 1308.23 135.94 1319.38 135.94C1327.15 135.94 1333.02 134.473 1336.98 131.54C1341.09 128.46 1343.14 124.133 1343.14 118.56C1343.14 113.72 1341.75 109.76 1338.96 106.68C1336.17 103.6 1331.33 100.96 1324.44 98.76Z" fill="url(#paint0_linear_76_111)" fill-opacity="0.15"/>
<defs>
<linearGradient id="paint0_linear_76_111" x1="265.5" y1="-112.5" x2="1769" y2="243" gradientUnits="userSpaceOnUse">
<stop stop-color="white"/>
<stop offset="1" stop-color="#083AA8"/>
</linearGradient>
</defs>
</svg>
