<svg width="416" height="216" viewBox="0 0 416 216" fill="none" xmlns="http://www.w3.org/2000/svg">
<path d="M78 64C78 59.2 76 54.9 72 51.1C68.2 47.3 63.6 45.4 58.2 45.4C50.8 45.4 44.8 46.7 40.2 49.3C35.6 51.7 31 55.8 26.4 61.6L8.49366e-07 31.3C5.6 22.1 13.7 14.7 24.3 9.09999C34.9 3.29999 47 0.399996 60.6 0.399996C80.6 0.399996 96.5 5.59999 108.3 16C120.3 26.2 126.3 38.9 126.3 54.1C126.3 64.9 124.4 74.5 120.6 82.9C116.8 91.1 112.2 97.7 106.8 102.7C101.6 107.5 96.4 112 91.2 116.2C86 120.2 81.7 124.6 78.3 129.4C75.1 134 73.9 139 74.7 144.4H33.9C32.7 135.2 33.3 127.2 35.7 120.4C38.3 113.6 41.9 108.2 46.5 104.2C51.1 100 55.7 96.2 60.3 92.8C65.1 89.2 69.2 85 72.6 80.2C76.2 75.4 78 70 78 64ZM26.1 185.2C26.1 178 28.9 171.5 34.5 165.7C40.1 159.9 47.5 157 56.7 157C64.7 157 71.4 159.9 76.8 165.7C82.2 171.5 84.9 178 84.9 185.2C84.9 193.4 82.2 200.6 76.8 206.8C71.6 212.8 64.9 215.8 56.7 215.8C47.5 215.8 40.1 212.8 34.5 206.8C28.9 200.8 26.1 193.6 26.1 185.2ZM222.434 64C222.434 59.2 220.434 54.9 216.434 51.1C212.634 47.3 208.034 45.4 202.634 45.4C195.234 45.4 189.234 46.7 184.634 49.3C180.034 51.7 175.434 55.8 170.834 61.6L144.434 31.3C150.034 22.1 158.134 14.7 168.734 9.09999C179.334 3.29999 191.434 0.399996 205.034 0.399996C225.034 0.399996 240.934 5.59999 252.734 16C264.734 26.2 270.734 38.9 270.734 54.1C270.734 64.9 268.834 74.5 265.034 82.9C261.234 91.1 256.634 97.7 251.234 102.7C246.034 107.5 240.834 112 235.634 116.2C230.434 120.2 226.134 124.6 222.734 129.4C219.534 134 218.334 139 219.134 144.4H178.334C177.134 135.2 177.734 127.2 180.134 120.4C182.734 113.6 186.334 108.2 190.934 104.2C195.534 100 200.134 96.2 204.734 92.8C209.534 89.2 213.634 85 217.034 80.2C220.634 75.4 222.434 70 222.434 64ZM170.534 185.2C170.534 178 173.334 171.5 178.934 165.7C184.534 159.9 191.934 157 201.134 157C209.134 157 215.834 159.9 221.234 165.7C226.634 171.5 229.334 178 229.334 185.2C229.334 193.4 226.634 200.6 221.234 206.8C216.034 212.8 209.334 215.8 201.134 215.8C191.934 215.8 184.534 212.8 178.934 206.8C173.334 200.8 170.534 193.6 170.534 185.2ZM366.867 64C366.867 59.2 364.867 54.9 360.867 51.1C357.067 47.3 352.467 45.4 347.067 45.4C339.667 45.4 333.667 46.7 329.067 49.3C324.467 51.7 319.867 55.8 315.267 61.6L288.867 31.3C294.467 22.1 302.567 14.7 313.167 9.09999C323.767 3.29999 335.867 0.399996 349.467 0.399996C369.467 0.399996 385.367 5.59999 397.167 16C409.167 26.2 415.167 38.9 415.167 54.1C415.167 64.9 413.267 74.5 409.467 82.9C405.667 91.1 401.067 97.7 395.667 102.7C390.467 107.5 385.267 112 380.067 116.2C374.867 120.2 370.567 124.6 367.167 129.4C363.967 134 362.767 139 363.567 144.4H322.767C321.567 135.2 322.167 127.2 324.567 120.4C327.167 113.6 330.767 108.2 335.367 104.2C339.967 100 344.567 96.2 349.167 92.8C353.967 89.2 358.067 85 361.467 80.2C365.067 75.4 366.867 70 366.867 64ZM314.967 185.2C314.967 178 317.767 171.5 323.367 165.7C328.967 159.9 336.367 157 345.567 157C353.567 157 360.267 159.9 365.667 165.7C371.067 171.5 373.767 178 373.767 185.2C373.767 193.4 371.067 200.6 365.667 206.8C360.467 212.8 353.767 215.8 345.567 215.8C336.367 215.8 328.967 212.8 323.367 206.8C317.767 200.8 314.967 193.6 314.967 185.2Z" fill="url(#paint0_linear_76_126)" fill-opacity="0.15"/>
<defs>
<linearGradient id="paint0_linear_76_126" x1="205" y1="-95" x2="205" y2="353" gradientUnits="userSpaceOnUse">
<stop stop-color="white"/>
<stop offset="1" stop-color="#083AA8"/>
</linearGradient>
</defs>
</svg>
