<svg width="206" height="205" viewBox="0 0 206 205" fill="none" xmlns="http://www.w3.org/2000/svg">
<path d="M184.016 141.091L179.193 137.653C179.161 137.626 179.121 137.618 179.074 137.628C179.035 137.656 179.008 137.688 178.994 137.726L178.024 140.224C178.01 140.261 178.01 140.297 178.025 140.332C178.048 140.384 178.08 140.41 178.122 140.413L184.002 141.128C184.014 141.133 184.023 141.129 184.028 141.117C184.033 141.104 184.029 141.096 184.016 141.091ZM175.097 131.901C175.198 131.64 175.386 131.47 175.66 131.39C175.929 131.323 176.171 131.381 176.386 131.565L186.522 139.832C186.781 140.047 186.956 140.315 187.046 140.636C187.131 140.97 187.113 141.292 186.993 141.603L186.515 142.833C186.39 143.156 186.183 143.412 185.895 143.601C185.608 143.79 185.298 143.87 184.966 143.841L171.914 143.087C171.632 143.078 171.416 142.951 171.268 142.708C171.114 142.477 171.088 142.231 171.189 141.97L171.674 140.72C171.795 140.41 171.997 140.166 172.28 139.99C172.575 139.818 172.886 139.753 173.214 139.795L175.158 140.034C175.263 140.061 175.337 140.018 175.38 139.906L176.827 136.177C176.866 136.077 176.84 135.996 176.75 135.933L175.153 134.798C174.883 134.607 174.698 134.349 174.595 134.023C174.505 133.702 174.521 133.387 174.641 133.076L175.097 131.901Z" fill="#5D5D5D"/>
<path d="M168.667 144.356C168.823 144.092 169.056 143.92 169.367 143.84C169.67 143.772 169.954 143.815 170.218 143.971L180.826 150.238C181.09 150.394 181.265 150.621 181.352 150.92C181.431 151.231 181.393 151.518 181.237 151.782L177.636 157.878C177.48 158.142 177.251 158.308 176.947 158.376C176.636 158.456 176.349 158.418 176.085 158.262L175.689 158.028C175.425 157.872 175.253 157.639 175.173 157.329C175.087 157.03 175.121 156.748 175.277 156.484L177.637 152.489C177.692 152.397 177.673 152.324 177.581 152.27L175.308 150.927C175.205 150.866 175.126 150.881 175.072 150.973L172.915 154.624C172.759 154.888 172.529 155.054 172.226 155.123C171.915 155.202 171.628 155.164 171.364 155.008L171.105 154.856C170.841 154.7 170.669 154.467 170.59 154.156C170.503 153.857 170.538 153.576 170.694 153.312L172.85 149.661C172.904 149.569 172.886 149.496 172.794 149.442L170.004 147.794C169.912 147.74 169.839 147.759 169.785 147.85L167.425 151.845C167.269 152.109 167.039 152.276 166.736 152.344C166.425 152.424 166.138 152.386 165.874 152.23L165.478 151.996C165.214 151.84 165.042 151.607 164.962 151.296C164.875 150.997 164.91 150.716 165.066 150.452L168.667 144.356Z" fill="#5D5D5D"/>
<path d="M169.411 163.064L166.031 160.31C165.959 160.251 165.874 160.26 165.778 160.336C165.45 160.654 165.202 160.916 165.034 161.123C164.427 161.867 164.131 162.58 164.143 163.261C164.158 163.961 164.475 164.563 165.096 165.069C166.326 166.071 167.577 165.791 168.848 164.23C169.059 163.972 169.264 163.667 169.465 163.314C169.512 163.215 169.494 163.131 169.411 163.064ZM161.559 153.83C161.753 153.592 162.009 153.457 162.328 153.424C162.647 153.392 162.925 153.472 163.163 153.666L172.637 161.384C172.885 161.586 173.04 161.85 173.102 162.175C173.164 162.501 173.104 162.796 172.922 163.061C172.289 164.007 171.64 164.888 170.975 165.705C168.28 169.013 165.703 169.665 163.242 167.66C161.909 166.574 161.211 165.361 161.15 164.022C161.091 162.701 161.668 161.296 162.881 159.808C163.201 159.415 163.515 159.06 163.824 158.745C163.9 158.652 163.896 158.571 163.814 158.504L161.054 156.256C160.816 156.062 160.681 155.806 160.648 155.487C160.615 155.168 160.696 154.889 160.89 154.652L161.559 153.83Z" fill="#5D5D5D"/>
<path d="M157.964 173.46L155.181 168.231C155.164 168.193 155.132 168.168 155.086 168.156C155.038 168.163 155 168.18 154.97 168.207L152.988 170.011C152.958 170.038 152.942 170.07 152.94 170.108C152.938 170.164 152.955 170.203 152.992 170.223L157.934 173.487C157.943 173.497 157.953 173.497 157.962 173.488C157.972 173.479 157.973 173.47 157.964 173.46ZM154.081 161.256C154.288 161.068 154.532 160.999 154.813 161.05C155.084 161.11 155.274 161.27 155.385 161.53L160.768 173.451C160.904 173.759 160.941 174.077 160.878 174.405C160.806 174.741 160.646 175.021 160.399 175.246L159.423 176.134C159.167 176.367 158.868 176.504 158.526 176.544C158.184 176.585 157.871 176.518 157.587 176.344L146.242 169.848C145.993 169.713 145.857 169.504 145.833 169.219C145.799 168.944 145.885 168.712 146.092 168.524L147.083 167.622C147.33 167.398 147.619 167.27 147.951 167.238C148.292 167.217 148.599 167.297 148.874 167.48L150.508 168.563C150.589 168.633 150.674 168.627 150.763 168.546L153.722 165.855C153.801 165.783 153.814 165.699 153.762 165.602L152.839 163.873C152.683 163.583 152.631 163.269 152.685 162.932C152.748 162.604 152.902 162.328 153.149 162.104L154.081 161.256Z" fill="#5D5D5D"/>
<path d="M147.459 180.716L145.362 177.5C145.297 177.399 145.219 177.378 145.13 177.436L144.326 177.96C143.544 178.47 143.052 179.022 142.85 179.615C142.655 180.219 142.75 180.818 143.136 181.41C143.893 182.571 145.037 182.653 146.567 181.656C146.914 181.43 147.201 181.211 147.429 180.999C147.514 180.911 147.525 180.817 147.459 180.716ZM142.793 169.529C143.05 169.362 143.335 169.311 143.649 169.377C143.963 169.443 144.203 169.605 144.371 169.862L151.044 180.099C151.226 180.378 151.293 180.677 151.245 180.994C151.186 181.319 151.03 181.58 150.777 181.777C149.848 182.526 148.859 183.242 147.809 183.926C146.133 185.019 144.68 185.512 143.45 185.407C142.216 185.32 141.22 184.696 140.463 183.534C139.975 182.786 139.752 181.968 139.795 181.081C139.844 180.205 140.137 179.409 140.674 178.694C140.685 178.686 140.687 178.677 140.679 178.666C140.665 178.644 140.646 178.64 140.624 178.654C139.873 178.698 138.98 178.341 137.945 177.584L135.33 175.66C135.113 175.498 135.01 175.279 135.02 175.002C135.03 174.724 135.147 174.513 135.371 174.367L136.393 173.701C136.683 173.512 137 173.425 137.344 173.439C137.688 173.454 137.992 173.566 138.256 173.776L140.666 175.643C141.128 176.01 141.526 176.204 141.858 176.226C142.191 176.248 142.592 176.106 143.061 175.8L143.765 175.342C143.854 175.284 143.866 175.204 143.801 175.104L141.573 171.686C141.405 171.429 141.354 171.143 141.421 170.83C141.487 170.516 141.648 170.276 141.905 170.108L142.793 169.529Z" fill="#5D5D5D"/>
<path d="M136.6 185.747C136.881 185.624 137.171 185.62 137.47 185.736C137.768 185.852 137.98 186.05 138.103 186.331L138.321 186.825C138.445 187.106 138.449 187.395 138.333 187.694C138.217 187.993 138.018 188.204 137.738 188.328L129.575 191.925C129.294 192.049 129.005 192.052 128.706 191.936C128.407 191.82 128.196 191.622 128.072 191.341L127.854 190.847C127.731 190.567 127.727 190.277 127.843 189.978C127.959 189.679 128.157 189.468 128.438 189.344L130.781 188.312C130.878 188.269 130.905 188.199 130.862 188.101L126.636 178.511C126.513 178.23 126.509 177.941 126.625 177.642C126.741 177.343 126.939 177.132 127.22 177.008L128.318 176.524C128.599 176.4 128.888 176.397 129.187 176.513C129.486 176.629 129.697 176.827 129.821 177.108L134.047 186.698C134.09 186.795 134.16 186.823 134.258 186.78L136.6 185.747Z" fill="#5D5D5D"/>
<path d="M119.253 178.869C119.55 178.793 119.837 178.837 120.112 179.001C120.388 179.164 120.563 179.395 120.639 179.692L123.681 191.631C123.756 191.928 123.712 192.214 123.549 192.49C123.385 192.765 123.155 192.941 122.857 193.017L121.908 193.259C121.171 193.446 120.553 193.26 120.052 192.699L114.022 186.042C114.019 186.029 114.011 186.024 113.998 186.028C113.985 186.031 113.98 186.039 113.983 186.052L115.909 193.61C115.985 193.908 115.941 194.194 115.777 194.47C115.613 194.745 115.383 194.921 115.086 194.997L114.136 195.239C113.839 195.314 113.552 195.27 113.277 195.107C113.001 194.943 112.826 194.712 112.75 194.415L109.708 182.477C109.633 182.179 109.677 181.893 109.84 181.617C110.004 181.342 110.234 181.166 110.532 181.09L111.481 180.849C112.218 180.661 112.836 180.847 113.337 181.408L119.367 188.065C119.37 188.078 119.378 188.083 119.391 188.08C119.404 188.076 119.409 188.068 119.406 188.055L117.48 180.497C117.404 180.199 117.448 179.913 117.612 179.637C117.776 179.362 118.006 179.186 118.303 179.111L119.253 178.869Z" fill="#5D5D5D"/>
<path d="M105.771 180.608C106.077 180.584 106.351 180.677 106.595 180.885C106.825 181.095 106.952 181.352 106.976 181.658L107.925 193.941C107.949 194.247 107.863 194.521 107.668 194.764C107.459 195.007 107.202 195.141 106.896 195.164L99.8373 195.71C99.5316 195.734 99.2636 195.641 99.0334 195.431C98.79 195.223 98.6564 194.966 98.6328 194.66L98.5973 194.201C98.5737 193.895 98.6661 193.621 98.8747 193.377C99.0699 193.135 99.3204 193.002 99.6261 192.978L104.252 192.621C104.359 192.612 104.408 192.555 104.4 192.449L104.196 189.817C104.187 189.697 104.129 189.641 104.023 189.649L99.7953 189.976C99.4895 190 99.2216 189.907 98.9914 189.697C98.7479 189.489 98.6144 189.232 98.5907 188.926L98.5676 188.627C98.544 188.321 98.6364 188.046 98.845 187.803C99.0402 187.561 99.2907 187.428 99.5964 187.404L103.824 187.077C103.93 187.069 103.979 187.012 103.971 186.905L103.721 183.675C103.713 183.569 103.656 183.519 103.549 183.528L98.9233 183.885C98.6175 183.909 98.3495 183.816 98.1194 183.606C97.8759 183.398 97.7424 183.141 97.7187 182.835L97.6833 182.376C97.6596 182.071 97.7521 181.796 97.9606 181.553C98.1558 181.31 98.4063 181.177 98.7121 181.153L105.771 180.608Z" fill="#5D5D5D"/>
<path d="M90.5582 191.924L90.8394 188.094C90.8481 187.975 90.7993 187.911 90.693 187.903L89.7355 187.833C88.8047 187.764 88.0791 187.905 87.5588 188.254C87.0375 188.617 86.751 189.151 86.6992 189.856C86.5977 191.239 87.4578 191.997 89.2796 192.131C89.6918 192.161 90.0528 192.161 90.3625 192.13C90.4842 192.112 90.5494 192.044 90.5582 191.924ZM93.6251 180.197C93.931 180.219 94.1886 180.352 94.3981 180.595C94.6075 180.837 94.7011 181.112 94.6786 181.417L93.7837 193.605C93.7593 193.937 93.632 194.215 93.4016 194.439C93.158 194.662 92.8756 194.775 92.5545 194.778C91.3623 194.811 90.1412 194.781 88.8912 194.689C86.8966 194.543 85.4417 194.055 84.5266 193.226C83.5973 192.409 83.1834 191.309 83.2849 189.926C83.3504 189.035 83.6687 188.25 84.2401 187.57C84.8104 186.903 85.5257 186.447 86.3859 186.203C86.3992 186.204 86.4063 186.198 86.4073 186.185C86.4093 186.158 86.3969 186.144 86.3703 186.142C85.7461 185.722 85.2519 184.897 84.8876 183.667L83.9733 180.551C83.8988 180.292 83.9496 180.055 84.1257 179.84C84.3019 179.626 84.523 179.529 84.7889 179.548L86.0056 179.638C86.3514 179.663 86.6566 179.786 86.9212 180.006C87.1858 180.226 87.3595 180.499 87.4425 180.826L88.2289 183.771C88.3741 184.344 88.5723 184.739 88.8236 184.958C89.0749 185.177 89.4798 185.307 90.0383 185.348L90.876 185.41C90.9824 185.418 91.04 185.362 91.0488 185.242L91.3476 181.173C91.37 180.867 91.5026 180.609 91.7452 180.4C91.9879 180.19 92.2621 180.097 92.568 180.119L93.6251 180.197Z" fill="#5D5D5D"/>
<path d="M76.7741 182.712C78.281 183.626 79.3045 184.554 79.8446 185.494C80.3816 186.448 80.5149 187.482 80.2445 188.596C79.9489 189.814 79.2951 190.671 78.2831 191.166C77.255 191.671 75.9506 191.732 74.3698 191.349C73.1777 191.059 72.1288 190.661 71.223 190.153C70.934 189.987 70.7334 189.739 70.6212 189.41C70.4929 189.091 70.4696 188.763 70.5513 188.426L70.6881 187.862C70.751 187.603 70.9098 187.429 71.1647 187.34C71.4196 187.251 71.6591 187.281 71.8833 187.432C72.8903 188.088 73.8603 188.529 74.7932 188.755C75.9853 189.044 76.6945 188.723 76.9209 187.79C77.1127 186.999 76.7312 186.31 75.7763 185.722C74.1203 184.743 73.0369 183.808 72.5262 182.916C72.0026 182.021 71.8838 180.983 72.1699 179.804C72.8459 177.018 74.9396 176.052 78.4511 176.904C79.5654 177.174 80.5336 177.594 81.3557 178.164C81.6384 178.356 81.8359 178.617 81.9481 178.946C82.0443 179.285 82.0499 179.629 81.965 179.979L81.8141 180.601C81.7575 180.834 81.6114 180.984 81.3758 181.05C81.137 181.129 80.9265 181.092 80.7444 180.938C79.9117 180.242 79.0029 179.775 78.0182 179.536C77.3314 179.369 76.7817 179.373 76.369 179.547C75.9402 179.731 75.666 180.069 75.5465 180.562C75.4428 180.989 75.481 181.369 75.6611 181.701C75.8413 182.033 76.2123 182.37 76.7741 182.712Z" fill="#5D5D5D"/>
<path d="M50.5782 178.117C51.2408 179.923 52.4432 181.229 54.1854 182.036C55.9277 182.843 57.7016 182.915 59.5072 182.252C61.3128 181.59 62.619 180.387 63.4258 178.645C64.2327 176.903 64.3048 175.129 63.6422 173.323C62.9796 171.518 61.7772 170.211 60.0349 169.405C58.2927 168.598 56.5188 168.526 54.7132 169.188C52.9076 169.851 51.6014 171.053 50.7945 172.795C49.9877 174.538 49.9156 176.312 50.5782 178.117ZM54.3916 168.312C56.4329 167.553 58.4457 167.633 60.4299 168.552C62.4142 169.47 63.7831 170.957 64.5366 173.01C65.278 175.058 65.1921 177.068 64.2788 179.04C63.3655 181.012 61.8882 182.378 59.8469 183.137C57.7935 183.89 55.7747 183.808 53.7904 182.889C51.8062 181.97 50.4434 180.487 49.7019 178.439C48.9484 176.385 49.0283 174.373 49.9416 172.4C50.8548 170.428 52.3382 169.065 54.3916 168.312Z" fill="#5D5D5D"/>
<path d="M34.0949 161.311L39.175 158.266C39.2126 158.247 39.2361 158.214 39.2453 158.167C39.2357 158.12 39.2168 158.082 39.1884 158.054L37.2864 156.166C37.2581 156.138 37.225 156.124 37.1873 156.124C37.1307 156.124 37.0931 156.143 37.0744 156.181L34.0665 161.283C34.0571 161.292 34.0571 161.302 34.0666 161.311C34.076 161.321 34.0855 161.321 34.0949 161.311ZM46.0853 156.813C46.284 157.01 46.365 157.25 46.3283 157.533C46.2822 157.807 46.132 158.005 45.8779 158.129L34.2464 164.111C33.9453 164.263 33.6297 164.316 33.2995 164.27C32.9599 164.214 32.6718 164.069 32.4352 163.834L31.4985 162.904C31.2525 162.66 31.1005 162.368 31.0427 162.029C30.9849 161.69 31.0356 161.374 31.1949 161.081L37.1064 149.421C37.228 149.166 37.4302 149.019 37.7129 148.98C37.9861 148.932 38.2221 149.007 38.4208 149.204L39.3718 150.148C39.6083 150.383 39.7508 150.665 39.7991 150.995C39.8381 151.334 39.7732 151.645 39.6045 151.929L38.6066 153.615C38.5409 153.701 38.5506 153.785 38.6358 153.87L41.4744 156.688C41.5501 156.763 41.635 156.772 41.7291 156.715L43.4084 155.705C43.6906 155.534 44.0015 155.467 44.341 155.504C44.6712 155.55 44.9545 155.69 45.1911 155.925L46.0853 156.813Z" fill="#5D5D5D"/>
<path d="M37.2791 146.03C37.4595 146.278 37.5247 146.56 37.4747 146.877C37.4169 147.182 37.264 147.426 37.016 147.606L27.0531 154.853C26.8051 155.034 26.5267 155.104 26.2179 155.065C25.9013 155.015 25.6527 154.866 25.4724 154.618L21.3075 148.893C21.1271 148.645 21.0659 148.368 21.1237 148.062C21.1736 147.745 21.3226 147.497 21.5706 147.316L21.9426 147.046C22.1906 146.865 22.4729 146.8 22.7895 146.85C23.0983 146.889 23.3429 147.033 23.5233 147.281L26.2528 151.033C26.3156 151.119 26.3901 151.131 26.4763 151.068L28.6112 149.515C28.7083 149.445 28.7254 149.366 28.6627 149.28L26.1685 145.851C25.9881 145.603 25.9268 145.326 25.9846 145.021C26.0346 144.704 26.1836 144.455 26.4315 144.275L26.6742 144.099C26.9221 143.918 27.2045 143.853 27.5211 143.903C27.8299 143.942 28.0745 144.086 28.2549 144.334L30.7491 147.762C30.8118 147.849 30.8863 147.86 30.9726 147.798L33.5927 145.892C33.679 145.829 33.6907 145.755 33.628 145.668L30.8985 141.916C30.7181 141.668 30.6568 141.391 30.7146 141.085C30.7646 140.769 30.9135 140.52 31.1615 140.34L31.5335 140.069C31.7815 139.889 32.0638 139.824 32.3805 139.873C32.6893 139.913 32.9339 140.056 33.1143 140.304L37.2791 146.03Z" fill="#5D5D5D"/>
<path d="M19.8299 139.309L23.7008 137.302C23.7837 137.259 23.8093 137.179 23.7778 137.06C23.6165 136.633 23.4745 136.301 23.3518 136.064C22.91 135.212 22.3741 134.656 21.7442 134.397C21.0963 134.132 20.4172 134.184 19.7069 134.552C18.2983 135.282 18.0572 136.541 18.9837 138.328C19.1371 138.624 19.3355 138.934 19.5787 139.259C19.6515 139.341 19.7352 139.358 19.8299 139.309ZM31.4251 135.776C31.5663 136.049 31.5884 136.338 31.4914 136.643C31.3945 136.949 31.2099 137.172 30.9376 137.313L20.0885 142.937C19.8044 143.084 19.5008 143.121 19.1778 143.049C18.8547 142.976 18.6076 142.803 18.4367 142.532C17.8204 141.574 17.2699 140.628 16.7852 139.693C14.8217 135.905 15.2486 133.281 18.0659 131.821C19.593 131.029 20.9832 130.872 22.2365 131.348C23.4718 131.819 24.5313 132.907 25.4149 134.612C25.648 135.062 25.8481 135.491 26.0151 135.9C26.0703 136.007 26.1453 136.035 26.24 135.986L29.4006 134.348C29.6728 134.207 29.9618 134.185 30.2673 134.282C30.5729 134.379 30.7962 134.563 30.9373 134.835L31.4251 135.776Z" fill="#5D5D5D"/>
<path d="M14.8921 124.804L20.796 124.332C20.8382 124.331 20.8739 124.312 20.9031 124.274C20.9154 124.228 20.9151 124.185 20.9022 124.148L20.0366 121.611C20.0237 121.573 20.0003 121.546 19.9664 121.529C19.9157 121.505 19.8735 121.505 19.84 121.53L14.8792 124.766C14.8666 124.77 14.8624 124.779 14.8667 124.792C14.871 124.804 14.8795 124.808 14.8921 124.804ZM27.633 126.098C27.7234 126.363 27.6894 126.614 27.5309 126.851C27.368 127.076 27.1453 127.187 26.8628 127.185L13.7847 127.38C13.4474 127.382 13.141 127.289 12.8656 127.102C12.5859 126.901 12.3922 126.643 12.2846 126.328L11.8582 125.079C11.7462 124.751 11.7397 124.422 11.8385 124.092C11.9373 123.763 12.1231 123.502 12.3958 123.31L22.8706 115.488C23.0928 115.313 23.3392 115.271 23.6097 115.362C23.8759 115.44 24.0542 115.612 24.1447 115.877L24.5775 117.145C24.6851 117.461 24.6874 117.777 24.5842 118.094C24.4685 118.415 24.2721 118.665 23.9951 118.844L22.352 119.912C22.2553 119.959 22.2264 120.04 22.2651 120.153L23.5571 123.939C23.5916 124.04 23.6636 124.086 23.7731 124.076L25.7263 123.917C26.055 123.889 26.3634 123.967 26.6514 124.151C26.9268 124.339 27.1184 124.59 27.226 124.906L27.633 126.098Z" fill="#5D5D5D"/>
<path d="M12.4345 112.294L16.222 111.661C16.3404 111.642 16.3908 111.579 16.3732 111.474L16.215 110.527C16.0612 109.606 15.753 108.935 15.2903 108.512C14.8145 108.091 14.2281 107.939 13.5311 108.055C12.1634 108.284 11.63 109.299 11.931 111.101C11.9991 111.508 12.0847 111.859 12.1878 112.153C12.2339 112.267 12.3161 112.314 12.4345 112.294ZM24.554 112.5C24.6046 112.802 24.5367 113.084 24.3505 113.345C24.1643 113.606 23.9199 113.762 23.6175 113.812L11.5645 115.826C11.2357 115.88 10.9354 115.823 10.6635 115.652C10.3894 115.468 10.2129 115.22 10.1339 114.909C9.81998 113.758 9.55979 112.565 9.35329 111.328C9.02376 109.356 9.15363 107.827 9.74287 106.742C10.3168 105.645 11.2876 104.983 12.6553 104.755C13.5364 104.607 14.3749 104.731 15.1707 105.125C15.9534 105.522 16.5652 106.109 17.0061 106.887C17.0083 106.9 17.0159 106.905 17.0291 106.903C17.0554 106.899 17.0664 106.884 17.062 106.857C17.3225 106.151 18.0073 105.476 19.1162 104.831L21.9268 103.206C22.1613 103.072 22.4035 103.065 22.6535 103.186C22.9034 103.306 23.0503 103.498 23.0943 103.761L23.2953 104.964C23.3524 105.306 23.3054 105.632 23.1542 105.941C23.0031 106.25 22.7785 106.484 22.4805 106.642L19.8046 108.102C19.283 108.379 18.9455 108.665 18.7922 108.961C18.6389 109.257 18.6083 109.681 18.7006 110.233L18.839 111.062C18.8566 111.167 18.9246 111.21 19.0429 111.19L23.0672 110.518C23.3696 110.467 23.6513 110.535 23.9122 110.721C24.1732 110.908 24.3289 111.152 24.3794 111.454L24.554 112.5Z" fill="#5D5D5D"/>
<path d="M12.1429 99.9679C12.1429 100.275 12.0295 100.541 11.8029 100.768C11.5762 100.995 11.3095 101.108 11.0029 101.108H10.4629C10.1562 101.108 9.88952 100.995 9.66285 100.768C9.43618 100.541 9.32285 100.275 9.32285 99.9679V91.0479C9.32285 90.7413 9.43618 90.4746 9.66285 90.2479C9.88952 90.0213 10.1562 89.9079 10.4629 89.9079H11.0029C11.3095 89.9079 11.5762 90.0213 11.8029 90.2479C12.0295 90.4746 12.1429 90.7413 12.1429 91.0479V93.6079C12.1429 93.7146 12.1962 93.7679 12.3029 93.7679H22.7829C23.0895 93.7679 23.3562 93.8813 23.5829 94.1079C23.8095 94.3346 23.9229 94.6013 23.9229 94.9079V96.1079C23.9229 96.4146 23.8095 96.6813 23.5829 96.9079C23.3562 97.1346 23.0895 97.2479 22.7829 97.2479H12.3029C12.1962 97.2479 12.1429 97.3013 12.1429 97.4079V99.9679Z" fill="#5D5D5D"/>
<path d="M25.3763 86.7745C25.3269 87.0772 25.1721 87.3221 24.9119 87.5094C24.6517 87.6966 24.3703 87.7655 24.0676 87.7161L11.9083 85.7329C11.6056 85.6835 11.3607 85.5287 11.1735 85.2685C10.9863 85.0083 10.9173 84.7269 10.9667 84.4242L11.1245 83.457C11.2468 82.7069 11.6649 82.2144 12.3786 81.9796L20.8912 79.1126C20.9044 79.1147 20.912 79.1092 20.9142 79.0961C20.9163 79.0829 20.9108 79.0753 20.8977 79.0731L13.1994 77.8175C12.8967 77.7681 12.6518 77.6133 12.4646 77.3531C12.2773 77.0929 12.2084 76.8115 12.2578 76.5088L12.4155 75.5416C12.4649 75.2389 12.6197 74.994 12.8799 74.8068C13.1401 74.6195 13.4215 74.5506 13.7242 74.6L25.8835 76.5833C26.1862 76.6326 26.4311 76.7874 26.6183 77.0476C26.8056 77.3078 26.8745 77.5892 26.8251 77.8919L26.6674 78.8591C26.545 79.6092 26.1269 80.1017 25.4132 80.3365L16.9006 83.2035C16.8874 83.2014 16.8798 83.2069 16.8776 83.22C16.8755 83.2332 16.881 83.2409 16.8942 83.243L24.5924 84.4987C24.8951 84.548 25.14 84.7028 25.3273 84.963C25.5145 85.2232 25.5834 85.5046 25.534 85.8073L25.3763 86.7745Z" fill="#5D5D5D"/>
<path d="M29.1642 73.7373C29.063 74.0267 28.868 74.241 28.5792 74.3802C28.2948 74.5067 28.0079 74.5194 27.7184 74.4182L16.089 70.3512C15.7995 70.25 15.583 70.0612 15.4395 69.785C15.3004 69.4962 15.2814 69.2071 15.3826 68.9176L17.7198 62.2345C17.8211 61.9451 18.0139 61.737 18.2983 61.6105C18.587 61.4714 18.8762 61.4524 19.1656 61.5536L19.5999 61.7055C19.8893 61.8067 20.1036 62.0017 20.2428 62.2905C20.3863 62.5667 20.4075 62.8496 20.3062 63.139L18.7745 67.5189C18.7393 67.6196 18.772 67.6876 18.8727 67.7228L21.3647 68.5943C21.478 68.6339 21.5522 68.6033 21.5875 68.5027L22.9871 64.5003C23.0884 64.2109 23.2812 64.0029 23.5656 63.8763C23.8543 63.7372 24.1435 63.7182 24.4329 63.8195L24.7161 63.9185C25.0056 64.0197 25.2199 64.2147 25.359 64.5035C25.5026 64.7797 25.5237 65.0626 25.4225 65.352L24.0228 69.3543C23.9876 69.455 24.0204 69.523 24.121 69.5582L27.1794 70.6278C27.2801 70.663 27.3481 70.6302 27.3833 70.5295L28.915 66.1496C29.0162 65.8602 29.209 65.6522 29.4934 65.5256C29.7822 65.3865 30.0713 65.3675 30.3608 65.4688L30.795 65.6206C31.0845 65.7218 31.2988 65.9169 31.4379 66.2056C31.5815 66.4818 31.6026 66.7647 31.5014 67.0542L29.1642 73.7373Z" fill="#5D5D5D"/>
<path d="M24.6211 55.7847L28.0172 57.577C28.1233 57.633 28.2013 57.6139 28.2511 57.5195L28.6991 56.6705C29.1348 55.8451 29.2968 55.124 29.1851 54.5072C29.0616 53.8842 28.6873 53.4078 28.0624 53.078C26.836 52.4307 25.7965 52.9148 24.9439 54.5303C24.751 54.8959 24.6066 55.2267 24.5106 55.5228C24.4782 55.6414 24.515 55.7287 24.6211 55.7847ZM34.1362 63.2941C33.993 63.5653 33.7683 63.7482 33.4621 63.8429C33.1558 63.9375 32.8671 63.9133 32.5959 63.7702L21.7887 58.0664C21.4939 57.9108 21.2901 57.6827 21.1775 57.382C21.071 57.0695 21.0807 56.7655 21.2064 56.4701C21.6542 55.3646 22.1706 54.2576 22.7556 53.1492C23.6891 51.3804 24.7191 50.243 25.8455 49.737C26.9664 49.2129 28.14 49.2744 29.3663 49.9217C30.1564 50.3387 30.7484 50.9451 31.1425 51.7411C31.5247 52.5308 31.6554 53.3686 31.5346 54.2547C31.5283 54.2665 31.5311 54.2755 31.5429 54.2817C31.5665 54.2941 31.5845 54.2886 31.597 54.265C32.2321 53.8614 33.1861 53.7393 34.4589 53.8985L37.6796 54.3092C37.9472 54.3449 38.1439 54.4864 38.2697 54.7337C38.3954 54.981 38.3961 55.2226 38.2716 55.4584L37.7022 56.5373C37.5404 56.8439 37.3057 57.0744 36.9981 57.2286C36.6905 57.3829 36.3704 57.4325 36.0376 57.3775L33.0238 56.9176C32.4414 56.8213 31.9995 56.8444 31.6982 56.9869C31.3968 57.1294 31.1155 57.4483 30.8541 57.9435L30.462 58.6864C30.4122 58.7808 30.4404 58.8559 30.5465 58.9119L34.1548 60.8163C34.426 60.9594 34.609 61.1841 34.7036 61.4904C34.7983 61.7967 34.7741 62.0854 34.6309 62.3566L34.1362 63.2941Z" fill="#5D5D5D"/>
<path d="M38.4809 46.844C37.0425 47.8627 35.7844 48.4328 34.7066 48.5542C33.6182 48.6676 32.6166 48.3786 31.7018 47.6873C30.7018 46.9316 30.1759 45.9911 30.124 44.8655C30.0695 43.7213 30.5327 42.5003 31.5134 41.2026C32.253 40.2239 33.0359 39.4201 33.8622 38.7911C34.1296 38.5921 34.4366 38.5065 34.7831 38.5345C35.1271 38.5437 35.4374 38.6528 35.7139 38.8618L36.1767 39.2115C36.3894 39.3723 36.486 39.5873 36.4663 39.8566C36.4467 40.1259 36.3233 40.3334 36.0961 40.4792C35.0936 41.1423 34.303 41.8567 33.7242 42.6226C32.9847 43.6013 32.9978 44.38 33.7637 44.9588C34.4126 45.4491 35.1969 45.3733 36.1166 44.7314C37.6727 43.601 38.9616 42.979 39.9834 42.8654C41.0132 42.7412 42.0121 43.0448 42.9801 43.7763C45.2671 45.5047 45.3214 47.8102 43.1429 50.693C42.4516 51.6078 41.6809 52.329 40.831 52.8566C40.5423 53.0395 40.2247 53.117 39.8781 53.0891C39.529 53.0425 39.2108 52.9107 38.9236 52.6936L38.413 52.3078C38.2215 52.1631 38.1422 51.9694 38.1751 51.7269C38.1973 51.4763 38.3153 51.2981 38.529 51.1922C39.4988 50.705 40.2892 50.0573 40.9001 49.2488C41.3262 48.685 41.5414 48.1791 41.5457 47.7311C41.5474 47.2645 41.3461 46.8784 40.9419 46.5729C40.5909 46.3077 40.2273 46.1917 39.8512 46.225C39.475 46.2583 39.0183 46.4646 38.4809 46.844Z" fill="#5D5D5D"/>
<path d="M53.1783 24.5086C51.2582 24.3968 49.581 24.9792 48.1468 26.2556C46.7125 27.5321 45.9395 29.1303 45.8277 31.0504C45.716 32.9705 46.2983 34.6477 47.5748 36.0819C48.8512 37.5162 50.4495 38.2892 52.3696 38.4009C54.2897 38.5127 55.9668 37.9304 57.4011 36.6539C58.8353 35.3775 59.6083 33.7792 59.7201 31.8591C59.8319 29.939 59.2495 28.2619 57.9731 26.8276C56.6966 25.3934 55.0983 24.6204 53.1783 24.5086ZM60.6519 31.9134C60.5347 34.0881 59.6594 35.9024 58.026 37.3561C56.3925 38.8098 54.484 39.4731 52.3004 39.346C50.1267 39.2101 48.3175 38.3303 46.8726 36.7068C45.4277 35.0834 44.7639 33.1842 44.881 31.0095C45.0081 28.8259 45.8884 27.0072 47.5218 25.5534C49.1553 24.0997 51.0588 23.4408 53.2325 23.5768C55.4161 23.7039 57.2304 24.5792 58.6752 26.2027C60.1201 27.8262 60.779 29.7297 60.6519 31.9134Z" fill="#5D5D5D"/>
<path d="M74.8898 16.0253L75.6716 21.8962C75.6741 21.9383 75.6952 21.9729 75.7348 22.0001C75.7818 22.01 75.8239 22.0075 75.8611 21.9926L78.3484 20.9949C78.3856 20.98 78.4115 20.9552 78.4264 20.9206C78.4486 20.8685 78.4461 20.8264 78.4188 20.7943L74.9269 16.0104C74.922 15.998 74.9133 15.9943 74.9009 15.9992C74.8885 16.0042 74.8848 16.0129 74.8898 16.0253ZM74.2668 28.8165C74.0069 28.9208 73.7544 28.9 73.5091 28.7541C73.2762 28.6033 73.1535 28.3868 73.1408 28.1045L72.2594 15.0547C72.2393 14.718 72.3158 14.4072 72.4888 14.1223C72.6742 13.8324 72.9216 13.6255 73.231 13.5014L74.4561 13.01C74.7779 12.8809 75.1059 12.8571 75.4403 12.9385C75.7746 13.0199 76.0446 13.1917 76.2504 13.4539L84.6125 23.5033C84.7984 23.7161 84.8531 23.9599 84.7766 24.2348C84.7124 24.5047 84.5504 24.6918 84.2906 24.796L83.0469 25.2949C82.7375 25.419 82.4218 25.4378 82.0999 25.3515C81.773 25.2528 81.5128 25.0698 81.3195 24.8026L80.1666 23.2178C80.1146 23.1238 80.0328 23.0991 79.9215 23.1438L76.209 24.6328C76.11 24.6726 76.0679 24.7469 76.0829 24.8558L76.3447 26.7979C76.3896 27.1247 76.328 27.4367 76.1599 27.734C75.9868 28.0189 75.7456 28.2234 75.4363 28.3475L74.2668 28.8165Z" fill="#5D5D5D"/>
<path d="M87.5564 24.9962C87.257 25.0628 86.9721 25.0101 86.7016 24.8381C86.4441 24.6632 86.2821 24.4261 86.2155 24.1267L83.5388 12.101C83.4722 11.8017 83.5183 11.5182 83.6773 11.2506C83.8493 10.9801 84.085 10.8115 84.3844 10.7449L91.2952 9.20671C91.5946 9.14008 91.873 9.19422 92.1305 9.36912C92.401 9.54113 92.5695 9.7768 92.6362 10.0761L92.7361 10.5252C92.8027 10.8245 92.75 11.1094 92.578 11.3799C92.419 11.6475 92.1899 11.8146 91.8905 11.8813L87.3614 12.8894C87.2573 12.9125 87.2168 12.9762 87.24 13.0803L87.8135 15.6572C87.8396 15.7744 87.9047 15.8213 88.0088 15.7982L92.1475 14.877C92.4469 14.8104 92.7253 14.8645 92.9828 15.0394C93.2533 15.2114 93.4218 15.4471 93.4885 15.7464L93.5536 16.0393C93.6203 16.3386 93.5676 16.6235 93.3956 16.894C93.2366 17.1616 93.0074 17.3287 92.7081 17.3954L88.5694 18.3165C88.4652 18.3397 88.4248 18.4034 88.4479 18.5075L89.1519 21.6701C89.175 21.7742 89.2387 21.8147 89.3428 21.7915L93.872 20.7834C94.1713 20.7168 94.4497 20.7709 94.7072 20.9458C94.9777 21.1178 95.1463 21.3535 95.2129 21.6528L95.3128 22.1019C95.3795 22.4012 95.3268 22.6861 95.1548 22.9566C94.9958 23.2242 94.7666 23.3913 94.4673 23.458L87.5564 24.9962Z" fill="#5D5D5D"/>
<path d="M101.209 11.5892L101.494 15.9398C101.5 16.033 101.564 16.0889 101.686 16.1077C102.142 16.1312 102.503 16.1342 102.769 16.1167C103.727 16.0538 104.451 15.7858 104.941 15.3126C105.443 14.8253 105.668 14.1825 105.616 13.3842C105.512 11.801 104.455 11.0753 102.446 11.2073C102.114 11.2291 101.75 11.2864 101.355 11.3792C101.25 11.4128 101.202 11.4828 101.209 11.5892ZM99.7945 23.6278C99.4885 23.6479 99.215 23.5523 98.9739 23.3409C98.7329 23.1296 98.6023 22.871 98.5822 22.5649L97.7813 10.3712C97.7604 10.0519 97.848 9.75886 98.0443 9.49209C98.2406 9.22532 98.4975 9.06815 98.815 9.02056C99.939 8.83985 101.026 8.71497 102.078 8.64594C106.335 8.36631 108.568 9.80974 108.776 12.9763C108.888 14.6926 108.475 16.0292 107.536 16.9861C106.609 17.9289 105.188 18.4632 103.272 18.589C102.766 18.6223 102.293 18.6333 101.851 18.6222C101.731 18.6301 101.675 18.6873 101.682 18.7937L101.915 22.346C101.935 22.652 101.84 22.9256 101.628 23.1666C101.417 23.4076 101.158 23.5382 100.852 23.5583L99.7945 23.6278Z" fill="#5D5D5D"/>
<path d="M116.66 12.8681L114.719 18.4637C114.702 18.5025 114.705 18.5429 114.728 18.585C114.766 18.615 114.805 18.6316 114.845 18.635L117.515 18.8622C117.555 18.8655 117.589 18.8551 117.618 18.8308C117.661 18.7943 117.678 18.7556 117.668 18.7146L116.7 12.8715C116.701 12.8582 116.695 12.851 116.681 12.8499C116.668 12.8488 116.661 12.8548 116.66 12.8681ZM110.353 24.0137C110.074 23.99 109.857 23.8578 109.704 23.6173C109.564 23.3779 109.551 23.1293 109.667 22.8715L114.747 10.8186C114.88 10.5088 115.088 10.2656 115.371 10.0889C115.667 9.91333 115.981 9.83968 116.313 9.86793L117.628 9.97979C117.974 10.0092 118.277 10.1354 118.539 10.3584C118.801 10.5814 118.965 10.8563 119.031 11.183L121.982 23.919C122.053 24.1926 121.992 24.435 121.8 24.6461C121.622 24.8584 121.393 24.9527 121.114 24.929L119.779 24.8154C119.446 24.7872 119.156 24.6621 118.907 24.4402C118.66 24.2051 118.509 23.9247 118.457 23.599L118.14 21.6652C118.135 21.5578 118.073 21.499 117.954 21.4888L113.968 21.1498C113.862 21.1408 113.791 21.1883 113.755 21.2923L113.116 23.1448C113.009 23.4569 112.814 23.7079 112.53 23.8978C112.248 24.0745 111.94 24.1487 111.608 24.1205L110.353 24.0137Z" fill="#5D5D5D"/>
<path d="M128.895 15.525L127.961 19.2497C127.932 19.3661 127.969 19.4373 128.072 19.4632L129.003 19.6967C129.909 19.9236 130.648 19.9096 131.22 19.6545C131.796 19.3865 132.17 18.9097 132.342 18.2243C132.679 16.8792 131.962 15.9846 130.19 15.5404C129.789 15.4399 129.433 15.3782 129.123 15.3553C129 15.352 128.924 15.4086 128.895 15.525ZM123.862 26.5521C123.564 26.4775 123.333 26.3027 123.169 26.0278C123.004 25.7528 122.959 25.4666 123.033 25.1691L126.005 13.3159C126.086 12.9926 126.259 12.7405 126.525 12.5596C126.803 12.3819 127.1 12.3191 127.417 12.371C128.597 12.5432 129.795 12.7817 131.011 13.0865C132.951 13.5729 134.301 14.303 135.06 15.2769C135.835 16.2411 136.055 17.3957 135.717 18.7407C135.5 19.6072 135.052 20.3265 134.372 20.8984C133.696 21.4574 132.913 21.7835 132.024 21.8767C132.011 21.8734 132.003 21.8783 132 21.8912C131.993 21.9171 132.003 21.9332 132.029 21.9397C132.572 22.4607 132.917 23.3583 133.065 24.6326L133.431 27.8585C133.46 28.127 133.37 28.3517 133.159 28.5326C132.949 28.7136 132.714 28.7716 132.456 28.7068L131.272 28.4101C130.936 28.3258 130.657 28.1526 130.434 27.8905C130.211 27.6284 130.086 27.3292 130.061 26.9928L129.791 23.9561C129.746 23.3675 129.619 22.9438 129.409 22.685C129.199 22.4261 128.822 22.2286 128.279 22.0924L127.464 21.8881C127.361 21.8622 127.294 21.9074 127.265 22.0238L126.273 25.9813C126.198 26.2788 126.024 26.5099 125.749 26.6746C125.474 26.8394 125.187 26.8845 124.89 26.8099L123.862 26.5521Z" fill="#5D5D5D"/>
<path d="M140.391 20.1712C140.11 20.0486 139.911 19.8381 139.794 19.5397C139.677 19.2413 139.679 18.9515 139.802 18.6705L140.018 18.1755C140.141 17.8944 140.351 17.6953 140.649 17.5782C140.948 17.461 141.238 17.4638 141.519 17.5864L149.695 21.153C149.976 21.2756 150.175 21.4861 150.292 21.7845C150.409 22.0829 150.406 22.3726 150.284 22.6537L150.068 23.1487C149.945 23.4297 149.735 23.6288 149.436 23.746C149.138 23.8631 148.848 23.8604 148.567 23.7377L146.221 22.7142C146.123 22.6715 146.053 22.6991 146.01 22.7968L141.82 32.4026C141.697 32.6837 141.487 32.8828 141.188 33C140.89 33.1171 140.6 33.1144 140.319 32.9917L139.219 32.5119C138.938 32.3893 138.739 32.1788 138.622 31.8804C138.505 31.582 138.507 31.2923 138.63 31.0112L142.82 21.4054C142.863 21.3076 142.835 21.2374 142.738 21.1948L140.391 20.1712Z" fill="#5D5D5D"/>
<path d="M147.179 37.5747C146.922 37.4082 146.76 37.1682 146.692 36.8548C146.625 36.5414 146.675 36.2559 146.841 35.9984L153.531 25.6528C153.697 25.3953 153.937 25.2329 154.251 25.1657C154.564 25.0984 154.85 25.148 155.107 25.3146L155.93 25.8467C156.568 26.2594 156.852 26.8397 156.781 27.5878L155.997 36.5359C155.989 36.5471 155.991 36.5563 156.002 36.5635C156.014 36.5708 156.023 36.5688 156.03 36.5576L160.265 30.0077C160.432 29.7501 160.672 29.5877 160.985 29.5205C161.299 29.4532 161.584 29.5029 161.842 29.6694L162.665 30.2015C162.922 30.368 163.085 30.608 163.152 30.9214C163.219 31.2348 163.17 31.5203 163.003 31.7778L156.313 42.1234C156.147 42.3809 155.907 42.5433 155.593 42.6105C155.28 42.6778 154.995 42.6282 154.737 42.4617L153.914 41.9295C153.276 41.5169 152.992 40.9365 153.063 40.1884L153.848 31.2403C153.855 31.2291 153.853 31.2199 153.842 31.2127C153.83 31.2054 153.821 31.2074 153.814 31.2186L149.579 37.7686C149.412 38.0261 149.172 38.1885 148.859 38.2557C148.545 38.323 148.26 38.2734 148.002 38.1068L147.179 37.5747Z" fill="#5D5D5D"/>
<path d="M157.502 46.1383C157.277 45.9303 157.158 45.6661 157.145 45.3458C157.142 45.0346 157.245 44.7663 157.453 44.5409L165.809 35.4882C166.017 35.2629 166.276 35.1393 166.587 35.1174C166.907 35.1046 167.18 35.2022 167.405 35.4102L172.608 40.2125C172.833 40.4205 172.947 40.6801 172.95 40.9914C172.963 41.3117 172.865 41.5845 172.657 41.8099L172.345 42.1479C172.137 42.3732 171.873 42.4923 171.553 42.5051C171.242 42.5269 170.975 42.4339 170.749 42.2259L167.34 39.0786C167.261 39.0063 167.186 39.0093 167.114 39.0876L165.323 41.0275C165.242 41.1157 165.24 41.196 165.318 41.2683L168.434 44.1442C168.659 44.3522 168.774 44.6119 168.777 44.9231C168.789 45.2434 168.692 45.5162 168.484 45.7416L168.28 45.962C168.072 46.1874 167.808 46.3064 167.488 46.3192C167.177 46.3411 166.909 46.248 166.684 46.04L163.568 43.1641C163.49 43.0917 163.415 43.0947 163.342 43.1731L161.145 45.5539C161.072 45.6322 161.075 45.7076 161.154 45.78L164.563 48.9272C164.789 49.1352 164.903 49.3948 164.906 49.7061C164.919 50.0264 164.821 50.2992 164.613 50.5246L164.301 50.8626C164.093 51.0879 163.829 51.207 163.508 51.2198C163.198 51.2416 162.93 51.1486 162.705 50.9406L157.502 46.1383Z" fill="#5D5D5D"/>
<path d="M175.942 49.2664L172.947 51.67C172.853 51.7451 172.84 51.8242 172.907 51.9074L173.508 52.6561C174.092 53.384 174.689 53.8193 175.299 53.962C175.92 54.0964 176.506 53.9424 177.057 53.5001C178.139 52.6322 178.108 51.4859 176.964 50.0613C176.706 49.739 176.46 49.4749 176.226 49.2691C176.13 49.1922 176.035 49.1913 175.942 49.2664ZM165.268 55.0116C165.077 54.7724 164.998 54.4935 165.033 54.1749C165.068 53.8562 165.205 53.6009 165.444 53.409L174.974 45.7603C175.234 45.5516 175.525 45.4554 175.845 45.4716C176.174 45.4981 176.449 45.6278 176.67 45.8607C177.507 46.7111 178.317 47.625 179.102 48.6024C180.354 50.1622 180.988 51.5595 181.004 52.7943C181.039 54.0311 180.516 55.0835 179.435 55.9515C178.738 56.5106 177.946 56.8128 177.059 56.8579C176.183 56.8946 175.362 56.6814 174.597 56.2183C174.589 56.2079 174.579 56.2069 174.569 56.2152C174.548 56.2319 174.546 56.2506 174.563 56.2714C174.681 57.0146 174.413 57.9386 173.761 59.0432L172.104 61.8351C171.965 62.0664 171.757 62.1907 171.48 62.2078C171.203 62.2248 170.981 62.1294 170.814 61.9214L170.051 60.97C169.834 60.6996 169.715 60.3927 169.696 60.0491C169.677 59.7055 169.759 59.392 169.941 59.1085L171.562 56.526C171.881 56.0299 172.036 55.6153 172.025 55.2821C172.014 54.949 171.833 54.564 171.483 54.1273L170.957 53.4722C170.89 53.389 170.81 53.385 170.717 53.4601L167.535 56.0138C167.295 56.2058 167.017 56.2843 166.698 56.2494C166.379 56.2145 166.124 56.0775 165.932 55.8383L165.268 55.0116Z" fill="#5D5D5D"/>
<path d="M178.661 65.5682C178.297 63.8434 178.274 62.4624 178.591 61.4251C178.919 60.3812 179.582 59.5768 180.58 59.0118C181.67 58.3943 182.743 58.2853 183.796 58.6848C184.868 59.0893 185.804 59.9993 186.606 61.4148C187.21 62.4823 187.637 63.5201 187.886 64.5283C187.962 64.8527 187.919 65.1684 187.756 65.4754C187.61 65.7874 187.387 66.0288 187.085 66.1996L186.581 66.4853C186.349 66.6167 186.113 66.6199 185.874 66.4949C185.634 66.3699 185.493 66.1742 185.449 65.9078C185.239 64.7244 184.897 63.7151 184.424 62.8797C183.82 61.8122 183.1 61.515 182.265 61.988C181.557 62.3887 181.315 63.1385 181.539 64.2375C181.958 66.1146 182.017 67.5446 181.715 68.5274C181.42 69.5218 180.745 70.3179 179.689 70.9157C177.194 72.328 175.057 71.462 173.277 68.3177C172.712 67.3198 172.356 66.3261 172.21 65.3366C172.156 64.999 172.211 64.6767 172.375 64.3697C172.556 64.0678 172.803 63.8282 173.117 63.6508L173.674 63.3355C173.883 63.2173 174.092 63.2214 174.301 63.3479C174.522 63.4679 174.639 63.6469 174.651 63.8851C174.713 64.9686 174.994 65.9513 175.493 66.8331C175.841 67.4481 176.22 67.8465 176.629 68.0284C177.057 68.2153 177.491 68.184 177.932 67.9343C178.315 67.7176 178.566 67.43 178.685 67.0716C178.804 66.7132 178.796 66.212 178.661 65.5682Z" fill="#5D5D5D"/>
<path d="M193.26 87.882C194.127 86.1653 194.261 84.395 193.662 82.571C193.062 80.747 191.904 79.4014 190.187 78.5341C188.471 77.6668 186.7 77.5329 184.876 78.1325C183.052 78.7321 181.707 79.8902 180.839 81.6069C179.972 83.3236 179.838 85.0939 180.438 86.9179C181.037 88.7419 182.195 90.0875 183.912 90.9548C185.629 91.8221 187.399 91.956 189.223 91.3564C191.047 90.7568 192.393 89.5987 193.26 87.882ZM183.491 91.7879C181.543 90.8142 180.228 89.2887 179.545 87.2114C178.862 85.1341 179.014 83.1193 180 81.167C180.99 79.2274 182.518 77.9182 184.583 77.2395C186.647 76.5608 188.654 76.7083 190.602 77.682C192.554 78.6683 193.872 80.2001 194.555 82.2775C195.237 84.3548 195.084 86.3633 194.093 88.3029C193.107 90.2552 191.581 91.5707 189.517 92.2494C187.452 92.9281 185.444 92.7742 183.491 91.7879Z" fill="#5D5D5D"/>
</svg>
