<svg width="91" height="91" viewBox="0 0 91 91" fill="none" xmlns="http://www.w3.org/2000/svg">
<g clip-path="url(#clip0_76_244)">
<path d="M47.3959 68.2497C25.7531 68.2497 8.67545 45.6968 7.96261 44.7375L7.11328 43.6038L7.96261 42.4701C8.67545 41.5108 25.7531 18.958 47.3959 18.958C69.0388 18.958 86.1164 41.5108 86.8293 42.4701L87.6786 43.6038L86.8293 44.7375C86.1164 45.6968 69.0388 68.2497 47.3959 68.2497ZM11.9059 43.6038C15.6218 48.1083 30.2955 64.458 47.3959 64.458C64.4964 64.458 79.1701 48.1083 82.8859 43.6038C79.1701 39.0993 64.4964 22.7497 47.3959 22.7497C30.2955 22.7497 15.6218 39.0993 11.9059 43.6038ZM47.3959 30.333C44.7712 30.333 42.2054 31.1113 40.0231 32.5695C37.8407 34.0278 36.1397 36.1004 35.1353 38.5253C34.1309 40.9502 33.868 43.6186 34.3801 46.1929C34.8922 48.7671 36.1561 51.1318 38.012 52.9877C39.868 54.8437 42.2326 56.1076 44.8069 56.6197C47.3812 57.1317 50.0495 56.8689 52.4745 55.8645C54.8994 54.8601 56.972 53.1591 58.4302 50.9767C59.8885 48.7943 60.6668 46.2286 60.6668 43.6038C60.6668 40.0842 59.2686 36.7087 56.7798 34.2199C54.2911 31.7312 50.9156 30.333 47.3959 30.333ZM47.3959 53.083C45.5211 53.083 43.6884 52.5271 42.1296 51.4855C40.5708 50.4439 39.3558 48.9635 38.6383 47.2314C37.9209 45.4993 37.7332 43.5933 38.0989 41.7545C38.4647 39.9158 39.3675 38.2267 40.6932 36.9011C42.0188 35.5754 43.7079 34.6726 45.5466 34.3068C47.3854 33.9411 49.2914 34.1288 51.0235 34.8462C52.7556 35.5637 54.236 36.7787 55.2776 38.3375C56.3192 39.8963 56.8751 41.729 56.8751 43.6038C56.8721 46.1169 55.8724 48.5263 54.0954 50.3033C52.3184 52.0803 49.909 53.08 47.3959 53.083Z" fill="white"/>
</g>
<defs>
<clipPath id="clip0_76_244">
<rect width="91" height="91" fill="white"/>
</clipPath>
</defs>
</svg>
