<svg width="32" height="34" viewBox="0 0 32 34" fill="none" xmlns="http://www.w3.org/2000/svg">
<path d="M25.7926 24.2017H23.4774C22.6009 24.2017 22.3299 23.4637 20.7553 21.7739C19.3836 20.3677 18.7769 20.1787 18.4401 20.1787C17.9673 20.1787 17.8324 20.3215 17.8324 21.0123V23.2263C17.8324 23.8225 17.6528 24.1792 16.1685 24.1792C13.1744 23.9665 10.601 22.2374 9.10713 19.7174L9.08482 19.678C7.35082 17.3977 6.07263 14.6493 5.44044 11.6433L5.41707 11.5117C5.41707 11.155 5.55201 10.8209 6.20438 10.8209H8.51957C9.10394 10.8209 9.3292 11.1067 9.55551 11.7727C10.7009 15.2737 12.6134 18.3449 13.4007 18.3449C13.6929 18.3449 13.8278 18.202 13.8278 17.4168V13.7954C13.7375 12.1282 12.9056 11.9864 12.9056 11.3913C12.9151 11.0729 13.1616 10.8187 13.4634 10.8187C13.4729 10.8187 13.4814 10.8187 13.491 10.8198H13.4899H17.1333C17.6284 10.8198 17.8079 11.1055 17.8079 11.7243V16.6068C17.8079 17.1299 18.0332 17.3212 18.1681 17.3212C18.4603 17.3212 18.7089 17.1299 19.2476 16.5595C20.3675 15.1117 21.3248 13.4557 22.0548 11.6703L22.1036 11.5353C22.2577 11.1269 22.6274 10.8434 23.0599 10.8434C23.0801 10.8434 23.0992 10.8445 23.1194 10.8457H23.1162H25.4314C26.1284 10.8457 26.2867 11.2248 26.1284 11.7502C25.1998 13.9158 24.1564 15.7765 22.9473 17.5L23.0025 17.4168C22.756 17.8454 22.6657 18.0355 23.0025 18.5137C23.249 18.8703 24.0597 19.6083 24.5994 20.2754C25.3804 21.0933 26.0349 22.045 26.5289 23.0958L26.5555 23.1577C26.7808 23.8462 26.4429 24.2039 25.7905 24.2039L25.7926 24.2017ZM20.8913 0.128906H11.1089C2.1807 0.128906 0.0673828 2.36653 0.0673828 11.8199V22.1778C0.0673828 31.6312 2.1807 33.8688 11.1089 33.8688H20.8913C29.8195 33.8688 31.9328 31.6312 31.9328 22.1778V11.8199C31.9328 2.36653 29.7961 0.128906 20.8913 0.128906Z" fill="#F8F8F8"/>
</svg>
