<svg width="45" height="45" viewBox="0 0 45 45" fill="none" xmlns="http://www.w3.org/2000/svg">
<path d="M3.75 41.25L6.3966 31.6296C4.77041 28.8073 3.91643 25.6065 3.92061 22.3492C3.90178 12.0853 12.2371 3.75 22.4812 3.75C27.4532 3.75 32.1216 5.67761 35.6366 9.19387C37.3693 10.9175 38.7426 12.9678 39.6771 15.226C40.6116 17.4842 41.0886 19.9054 41.0805 22.3492C41.0805 32.5935 32.7452 40.9288 22.5 40.9288C19.3815 40.9288 16.3383 40.1533 13.6163 38.661L3.75 41.25ZM14.0517 35.3154L14.6189 35.6554C16.9997 37.0642 19.7149 37.8082 22.4812 37.8101C30.987 37.8101 37.9243 30.8741 37.9243 22.3671C37.9243 18.247 36.318 14.3541 33.4065 11.4439C31.9749 10.0041 30.2724 8.86192 28.3974 8.08314C26.5222 7.30434 24.5115 6.90435 22.4812 6.90621C13.9564 6.90731 7.02142 13.8434 7.02142 22.3504C7.02142 25.2607 7.83456 28.1156 9.38441 30.5728L9.74334 31.1587L8.17466 36.8662L14.0517 35.3154Z" fill="#25D366"/>
<path fill-rule="evenodd" clip-rule="evenodd" d="M17.8503 14.5622C17.5102 13.7867 17.1324 13.7678 16.8112 13.7678C16.5276 13.749 16.224 13.749 15.9028 13.749C15.6014 13.749 15.0907 13.862 14.6564 14.3351C14.2211 14.807 13.0312 15.9226 13.0312 18.2091C13.0312 20.4969 14.6941 22.7081 14.9212 23.0105C15.1472 23.3129 18.1339 28.1508 22.8599 30.023C26.7904 31.5729 27.5849 31.2704 28.4356 31.1752C29.2853 31.0811 31.1764 30.0607 31.573 28.964C31.9508 27.8872 31.9508 26.9422 31.8377 26.7526C31.7247 26.5644 31.4024 26.4502 30.9494 26.2044C30.4763 25.9783 28.2085 24.8439 27.7742 24.6922C27.3389 24.5414 27.0364 24.4661 26.734 24.9193C26.4316 25.3923 25.543 26.4314 25.2606 26.7339C24.9947 27.0363 24.7122 27.074 24.2581 26.8469C23.7861 26.6208 22.2927 26.129 20.5157 24.5414C19.1354 23.3118 18.2092 21.7818 17.9256 21.3288C17.662 20.8558 17.888 20.6098 18.1339 20.3827C18.3422 20.1755 18.607 19.8354 18.8341 19.5706C19.06 19.3048 19.1354 19.0976 19.306 18.7951C19.4567 18.4927 19.3814 18.2091 19.2683 17.9831C19.1543 17.7749 18.2668 15.4883 17.8503 14.5622Z" fill="#25D366"/>
</svg>
